<svg width="86" height="13" viewBox="0 0 86 13" fill="none" xmlns="http://www.w3.org/2000/svg">
<path fill-rule="evenodd" clip-rule="evenodd" d="M29.532 6.26131V5.57149H22.7628V6.95137H27.9665C27.5949 9.18007 25.4022 10.9076 22.7617 10.9076C19.8611 10.9076 17.5014 8.82333 17.5014 6.26131C17.5014 3.69953 19.8611 1.61501 22.7617 1.61501C24.4617 1.61501 26.0657 2.34691 27.0521 3.57233L28.2992 2.78926C27.0261 1.20757 24.956 0.263581 22.7617 0.263581C19.0173 0.263581 15.9711 2.954 15.9711 6.26131C15.9711 9.56862 19.0173 12.2593 22.7617 12.2593C26.5061 12.2593 29.5521 9.56862 29.532 6.26131ZM69.1064 10.7622V0.446497H67.6186V12.0761H75.727V10.7622H69.1064ZM65.218 0.446497L61.0808 6.3548L56.9434 0.446497H55.1932L60.3285 7.78035V12.0761H61.8166V7.80378L66.9684 0.446497H65.218ZM43.0232 11.2541C43.8502 10.6353 44.2871 9.72858 44.2871 8.63252C44.2871 7.51757 43.7763 6.67329 42.7695 6.12263C41.9468 5.67287 40.7833 5.41224 39.1079 5.3025C36.0555 5.05311 36.0552 3.91042 36.0552 3.53455C36.0552 2.34763 37.2293 1.58058 39.0462 1.58058C40.8878 1.58058 42.2768 2.42079 42.2768 3.53455H43.7727C43.7727 1.66761 41.7406 0.259277 39.0462 0.259277C36.4044 0.259277 34.5596 1.60616 34.5596 3.53455C34.5596 4.45534 35.0022 5.2224 35.8403 5.75321C36.5747 6.21803 37.6302 6.5095 38.9777 6.61877L38.991 6.61997C42.4974 6.84831 42.7914 7.77868 42.7914 8.63252C42.7914 9.19466 42.7914 10.9062 39.2571 10.9062C37.0519 10.9062 35.5119 9.90122 35.5119 8.46252H34.016C34.016 10.6439 36.2201 12.2272 39.2571 12.2272C40.8935 12.2272 42.1607 11.8999 43.0232 11.2541ZM85.4778 1.69487V0.446497H77.2148V12.0761H85.4778V10.7622H78.7024V6.91646H84.1327V5.60233H78.7024V1.69487H85.4778ZM54.5 0.439802H44.2982V1.75393H48.6549V12.079H50.1427V1.75393H54.5V0.439802ZM31.0198 12.0764H32.5076V0.446497H31.0198V12.0764ZM12.9836 12.0764H14.4714V0.446497H12.9836V12.0764ZM0 12.0761V0.446497H4.90084C8.49148 0.446497 11.42 2.99847 11.4833 6.15682C11.5488 9.42157 8.50691 12.0761 4.81043 12.0761H0ZM1.4878 10.762H4.82099C7.61927 10.762 9.9568 8.79918 9.99741 6.32778C10.0386 3.81574 7.73702 1.76062 4.90247 1.76062H1.4878V10.762Z" fill="#424750"/>
</svg>
