<svg width="54" height="16" viewBox="0 0 54 16" fill="none" xmlns="http://www.w3.org/2000/svg">
<g clip-path="url(#clip0)">
<path d="M41.6773 0L37.2478 4.45858C36.3717 5.34053 36.9922 6.84853 38.2313 6.84853H47.885C49.7505 6.84853 51.2627 8.37076 51.2627 10.2485C51.2627 12.1263 49.7505 13.6485 47.885 13.6485H38.7451C36.8796 13.6485 35.3673 12.1263 35.3673 10.2485C35.3673 7.04528 32.7875 4.44853 29.6052 4.44853H29.4065C26.2907 4.44853 23.7525 6.93788 23.6478 10.0485H23.6444C23.6444 12.0854 22.0849 13.6485 20.2667 13.6485C18.4485 13.6485 16.8889 12.0854 16.8889 10.0485H16.8855C16.7808 6.93788 14.2426 4.44853 11.1268 4.44853H9.73595V6.84853H11.1268C12.9923 6.84853 14.5046 8.37076 14.5046 10.2485C14.5046 12.1263 12.9923 13.6485 11.1268 13.6485H5.36471V16.0485H11.1268C13.0058 16.0485 14.6747 15.1433 15.7265 13.7424C16.7733 15.1388 18.404 16.0485 20.2667 16.0485C22.1293 16.0485 23.76 15.1388 24.8068 13.7424C25.8587 15.1433 27.5276 16.0485 29.4065 16.0485H30.5987V13.6485H29.4065C27.541 13.6485 26.0288 12.1263 26.0288 10.2485C26.0288 8.37076 27.541 6.84853 29.4065 6.84853H29.6052C31.4707 6.84853 32.983 8.37076 32.983 10.2485C32.983 13.4518 35.5628 16.0485 38.7451 16.0485H47.885C51.0673 16.0485 53.6471 13.4518 53.6471 10.2485C53.6471 7.04528 51.0673 4.44853 47.885 4.44853H40.6298L43.3632 1.69706L41.6773 0Z" fill="#424750"/>
<path d="M0 16.0485V1.24853H2.38431V16.0485H0Z" fill="#424750"/>
</g>
<defs>
<clipPath id="clip0">
<rect width="53.6471" height="16" fill="white"/>
</clipPath>
</defs>
</svg>
