<svg width="153" height="41" viewBox="0 0 153 41" fill="none" xmlns="http://www.w3.org/2000/svg">
<path fill-rule="evenodd" clip-rule="evenodd" d="M49.4971 8.81451C49.7441 8.81451 50.0894 8.95739 50.2633 9.13038L52.8431 11.7067L52.8605 11.7285V9.89733C52.8605 9.29953 53.3469 8.81451 53.9457 8.81451H57.5613C58.0997 8.81451 58.5508 9.15858 58.7158 9.63527C58.7286 9.69358 58.7331 9.75445 58.7331 9.81724V32.2471C58.7331 36.0427 56.3875 39.2758 53.0344 40.4887C52.1186 40.8206 51.1271 41 50.0894 41H45.1569C44.6949 41 44.2585 40.818 43.9305 40.4887C43.3016 39.8473 42.4488 38.9792 41.6106 38.127C40.5389 37.0461 41.3135 35.2111 42.837 35.2111H50.0695C51.1374 35.2111 52.0666 34.619 52.5441 33.7464C52.7674 33.3389 52.8605 32.875 52.8605 32.4117V32.2708H43.3357C42.7889 32.2708 42.255 32.217 41.739 32.1144C38.0104 31.2155 35.2413 27.8613 35.2413 23.8658V17.299C35.2413 12.6121 39.0456 8.81451 43.7393 8.81451H49.4971ZM99.072 0.0357521C99.6689 0.0357521 100.157 0.523343 100.157 1.11922V31.0808C100.157 31.7452 99.613 32.2885 98.9475 32.2885H95.4834C94.8128 32.2885 94.2744 31.7452 94.2744 31.0808V1.24352C94.2744 0.579727 94.8128 0.0357521 95.4834 0.0357521H99.072ZM134.296 0.0348551C134.895 0.0348551 135.381 0.519883 135.381 1.11832V8.83136H144.906C145.452 8.83136 145.986 8.88582 146.503 8.98769C150.231 9.88663 153 13.2408 153 17.2364V23.8012C153 28.4881 149.194 32.2883 144.499 32.2883H138.794C138.563 32.2883 138.339 32.2146 138.154 32.0781C138.109 32.0474 138.065 32.0108 138.026 31.9717L138.024 31.9698L135.378 29.3172V31.2048C135.378 31.8007 134.891 32.2883 134.294 32.2883H130.678C130.14 32.2883 129.689 31.9436 129.524 31.4669C129.51 31.4086 129.506 31.3477 129.506 31.2849V1.11832C129.506 0.519883 129.992 0.0348551 130.591 0.0348551H134.296ZM107.874 8.83916C108.476 8.83661 108.965 9.32228 108.965 9.92264V23.9116C108.965 25.2987 110.091 26.4232 111.48 26.4232H120.71L120.704 9.93289C120.704 9.33445 121.19 8.84878 121.789 8.84878H125.497C126.096 8.84878 126.582 9.33381 126.582 9.93225L126.584 31.285C126.584 31.3478 125.951 32.2884 125.413 32.2884H121.798C121.201 32.2884 120.712 31.8008 120.712 31.2049V29.3174L118.067 31.97C118.025 32.011 117.982 32.0475 117.936 32.0782C117.752 32.2141 117.529 32.2884 117.296 32.2884H111.591C106.896 32.2884 103.091 28.4883 103.091 23.8014V9.94186C103.091 9.34535 103.573 8.8616 104.17 8.8584L107.874 8.83916ZM86.5849 8.76235C86.934 8.7521 87.2748 8.88601 87.5199 9.13077L90.9642 12.5695C91.7369 13.341 91.2267 14.6948 90.1396 14.6948L88.7294 14.695C88.6721 14.695 88.6137 14.695 88.5542 14.695L85.8233 14.6956C85.7459 14.6956 85.6682 14.6956 85.5902 14.6957L82.9969 14.6963C82.92 14.6963 82.8435 14.6963 82.7674 14.6963L80.4822 14.6969C80.4221 14.6969 80.363 14.6969 80.3051 14.6969L78.5753 14.6974C77.1859 14.6974 76.0596 15.8212 76.0596 17.2084V23.9142C76.0596 25.3007 77.184 26.4233 78.5727 26.4252L90.2506 26.4233C90.8493 26.4233 91.3351 26.9083 91.3351 27.5067V31.205C91.3351 31.8028 90.8493 32.2885 90.2506 32.2885H78.2801C77.7327 32.2885 77.1987 32.234 76.6821 32.1321C72.9542 31.2332 70.1851 27.879 70.1851 23.8834V17.3186C70.1851 13.4339 72.8021 10.1559 76.3702 9.14807C76.9151 8.99621 77.4811 8.8969 78.0651 8.85397C78.2692 8.8386 78.4771 8.83155 78.6857 8.83155L78.7851 8.83124C78.8013 8.83119 78.8194 8.83113 78.8393 8.83106L78.9798 8.83059C80.269 8.82616 85.4088 8.80597 86.5849 8.76235ZM22.4089 0C23.0077 0 23.4941 0.485669 23.4941 1.08346V31.25C23.4941 31.3128 23.4896 31.3737 23.4768 31.432C23.3119 31.9087 22.8601 32.2534 22.3223 32.2534H18.7067C18.1099 32.2534 17.6215 31.7658 17.6215 31.1699V29.283L14.9762 31.935C14.9351 31.976 14.8915 32.0125 14.8459 32.0433C14.6617 32.1797 14.4378 32.2534 14.2061 32.2534H8.50033C3.80659 32.2534 0 28.4526 0 23.7664V17.2015C0 13.206 2.76888 9.85177 6.49744 8.95284C7.01404 8.85096 7.54733 8.7965 8.09474 8.7965H17.6196V1.08346C17.6196 0.485669 18.1054 0 18.7041 0H22.4089ZM31.2195 8.79727C31.8189 8.79727 32.3047 9.2823 32.3047 9.88073V31.1701C32.3047 31.7685 31.8189 32.2535 31.2195 32.2535H27.5153C26.9159 32.2535 26.4301 31.7685 26.4301 31.1701V9.88073C26.4301 9.2823 26.9159 8.79727 27.5153 8.79727H31.2195ZM66.4591 8.79727C67.0585 8.79727 67.5443 9.2823 67.5443 9.88073V31.1701C67.5443 31.7685 67.0585 32.2535 66.4591 32.2535H62.7549C62.1555 32.2535 61.6697 31.7685 61.6697 31.1701V9.88073C61.6697 9.2823 62.1555 8.79727 62.7549 8.79727H66.4591ZM144.612 14.6946H135.381V26.4231H144.61C145.999 26.4231 147.125 25.2986 147.125 23.9114V17.2056C147.125 15.8191 146.002 14.6965 144.612 14.6946ZM52.8605 14.6618H43.6289C42.2402 14.6618 41.1139 15.7869 41.1139 17.1734V23.8792C41.1139 25.2657 42.2376 26.3883 43.627 26.3902H52.8605V14.6618ZM17.6196 14.6598H8.38802C6.99864 14.6623 5.8743 15.7842 5.8743 17.1708V23.8772C5.8743 25.2638 7.00056 26.3882 8.38995 26.3882H17.6196V14.6598ZM66.4591 0.0356244C67.0585 0.0356244 67.5443 0.520653 67.5443 1.11909V4.81671C67.5443 5.41514 67.0585 5.90017 66.4591 5.90017H62.7549C62.1555 5.90017 61.6697 5.41514 61.6697 4.81671V1.11909C61.6697 0.520653 62.1555 0.0356244 62.7549 0.0356244H66.4591ZM31.2195 0.00089701C31.8189 0.00089701 32.3047 0.485925 32.3047 1.08436V4.78198C32.3047 5.38042 31.8189 5.86544 31.2195 5.86544H27.5153C26.9159 5.86544 26.4301 5.38042 26.4301 4.78198V1.08436C26.4301 0.485925 26.9159 0.00089701 27.5153 0.00089701H31.2195Z" fill="#424750"/>
</svg>
