<svg width="66" height="16" viewBox="0 0 66 16" fill="none" xmlns="http://www.w3.org/2000/svg">
<path fill-rule="evenodd" clip-rule="evenodd" d="M64.8597 3.3392C64.8265 3.46476 64.7542 3.77729 64.6601 4.18425C64.5941 4.46966 64.5173 4.80151 64.4358 5.14788L63.1499 11.3145C63.051 11.7702 62.9379 12.1547 62.7966 12.4965C62.6553 12.8383 62.4716 13.1232 62.2314 13.3368C61.9912 13.5647 61.7085 13.7213 61.3553 13.8352C61.002 13.9492 60.5781 14.0061 60.0553 14.0061C59.9119 14.0061 59.7805 13.994 59.639 13.981L59.6031 13.9777C58.6565 13.9695 57.5248 13.9847 56.6452 13.9965C55.9885 14.0053 55.4724 14.0122 55.2791 14.0061C54.6715 14.0061 54.1204 13.9349 53.6258 13.764C51.2236 13.0377 50.8421 10.0612 51.6051 7.95347C52.5095 5.17636 55.0106 3.83765 57.7661 4.69215C59.4052 5.1906 60.2813 6.70021 60.2531 8.42344C60.2441 8.50526 60.2446 8.61608 60.2453 8.74C60.2477 9.19852 60.251 9.83639 59.7726 9.8476H53.6541C53.4704 11.2148 54.1204 12.1832 55.6182 12.1547C55.6978 12.1547 56.8438 12.1398 57.9625 12.1252C59.0292 12.1113 60.0711 12.0978 60.14 12.0978C60.3096 12.0978 60.4368 12.0408 60.5357 11.9269C60.6346 11.8129 60.7053 11.6848 60.7759 11.5139C60.8324 11.3572 60.889 11.1863 60.9172 11.0154C60.9462 10.9084 60.9686 10.8146 60.9888 10.7296C60.9982 10.6902 61.0072 10.6527 61.0161 10.6166V10.5882L61.3412 9.03583H61.327C61.402 8.66508 61.4736 8.29101 61.5404 7.94236C61.6121 7.56782 61.6783 7.2226 61.7368 6.94232L60.8183 6.9708C60.5781 6.9708 60.4368 6.67173 60.6064 6.48659L62.2314 4.72063C62.3054 4.34765 62.3445 4.11924 62.3792 3.91669C62.4108 3.73255 62.4386 3.56978 62.4857 3.3392C62.7401 2.19987 63.8847 0.519365 64.2238 0.0351508C64.2521 -0.0218156 64.351 -0.00757398 64.3651 0.0636339C64.5064 0.533606 64.9021 1.91504 64.8879 2.96892V3.04013C64.8879 3.13977 64.8738 3.23955 64.8597 3.3392ZM57.0454 6.51507C56.0139 6.05934 54.7563 6.51507 54.2334 7.54047C54.1062 7.78257 53.9932 8.02468 53.8943 8.28103H57.8509C57.8509 7.61167 57.7096 6.82839 57.0454 6.51507Z" fill="#424750"/>
<path d="M49.6692 3.12565H51.3225C51.5203 3.12565 51.6758 2.99747 51.7181 2.79809L52.0008 1.55907C52.0573 1.30272 51.8595 1.06062 51.6051 1.06062H49.9518C49.754 1.06062 49.5986 1.18879 49.5562 1.38817L49.2877 2.62719C49.217 2.88354 49.4007 3.12565 49.6692 3.12565Z" fill="#424750"/>
<path d="M26.6929 5.93122L24.333 8.89347L26.707 11.8557C26.8342 12.0266 26.7211 12.2687 26.5092 12.2687H25.1668C25.0537 12.2687 24.9689 12.226 24.8983 12.1406L22.4961 9.13558V11.9127C22.4961 12.0978 22.3406 12.2545 22.1569 12.2545H21.2102C21.0265 12.2545 20.871 12.0978 20.871 11.9127V3.49591C20.871 3.31077 21.0265 3.15412 21.2102 3.15412H22.1569C22.3406 3.15412 22.4961 3.31077 22.4961 3.49591V8.60864L24.8841 5.64639C24.9548 5.56094 25.0537 5.51822 25.1526 5.51822H26.495C26.707 5.51822 26.82 5.77457 26.6929 5.93122Z" fill="#424750"/>
<path d="M35.2984 3.16832H36.2451C36.443 3.16832 36.5843 3.31073 36.5843 3.49588V11.9269C36.5843 12.112 36.4288 12.2687 36.2451 12.2687H35.2984C35.1147 12.2687 34.9593 12.112 34.9593 11.9269V3.51012C34.9593 3.32498 35.1147 3.16832 35.2984 3.16832Z" fill="#424750"/>
<path d="M8.11095 5.53243H9.05771C9.24141 5.53243 9.39684 5.67484 9.39684 5.87423V11.9269C9.39684 12.112 9.24141 12.2687 9.05771 12.2687H8.11095C7.92726 12.2687 7.77182 12.112 7.77182 11.9269V5.87423C7.77182 5.68909 7.92726 5.53243 8.11095 5.53243Z" fill="#424750"/>
<path d="M9.05771 3.16832H8.11095C7.92726 3.16832 7.77182 3.32498 7.77182 3.51012V4.37885C7.77182 4.56399 7.92726 4.72065 8.11095 4.72065H9.05771C9.24141 4.72065 9.39684 4.56399 9.39684 4.37885V3.51012C9.39684 3.31073 9.24141 3.16832 9.05771 3.16832Z" fill="#424750"/>
<path d="M18.497 5.53243H19.4438C19.6275 5.53243 19.7829 5.67484 19.7829 5.87423V11.9269C19.7829 12.112 19.6275 12.2687 19.4438 12.2687H18.497C18.3133 12.2687 18.1579 12.112 18.1579 11.9269V5.87423C18.1579 5.68909 18.3133 5.53243 18.497 5.53243Z" fill="#424750"/>
<path d="M19.4438 3.16832H18.497C18.3133 3.16832 18.1579 3.32498 18.1579 3.51012V4.37885C18.1579 4.56399 18.3133 4.72065 18.497 4.72065H19.4438C19.6275 4.72065 19.7829 4.56399 19.7829 4.37885V3.51012C19.7829 3.31073 19.6275 3.16832 19.4438 3.16832Z" fill="#424750"/>
<path fill-rule="evenodd" clip-rule="evenodd" d="M6.34466 3.16832H5.299C5.1153 3.16832 4.95986 3.32498 4.95986 3.51012V5.53242H2.45873C1.10219 5.53242 0 6.64327 0 8.01046V9.79066C0 11.1578 1.10219 12.2687 2.45873 12.2687H4.12615C4.32398 12.2687 4.49355 12.1832 4.62072 12.0266L4.97399 11.5709V11.9269C4.97399 12.112 5.12943 12.2687 5.31313 12.2687H6.35879C6.54249 12.2687 6.69793 12.112 6.69793 11.9269V3.49588C6.6838 3.31073 6.52836 3.16832 6.34466 3.16832ZM4.95986 10.5312H2.50113C2.06308 10.5312 1.70981 10.1752 1.70981 9.73369V8.05318C1.70981 7.61169 2.06308 7.25565 2.50113 7.25565H4.95986V10.5312Z" fill="#424750"/>
<path fill-rule="evenodd" clip-rule="evenodd" d="M15.685 5.53243H16.7307C16.9285 5.53243 17.0698 5.68909 17.0839 5.87423V12.3399C17.0839 13.7071 15.9817 14.8179 14.6252 14.8179H13.3393C13.1415 14.8179 12.9578 14.7325 12.8447 14.5758L12.0958 13.5789C11.9686 13.4223 12.0958 13.1802 12.2936 13.1802H14.5687C15.0067 13.1802 15.36 12.8241 15.36 12.3826V12.2687H12.8447C11.4882 12.2687 10.386 11.1579 10.386 9.79066V8.01046C10.386 6.64327 11.4882 5.53243 12.8447 5.53243H14.5121C14.71 5.53243 14.8937 5.61788 15.0067 5.77453L15.3459 6.23027V5.87423C15.3459 5.68909 15.5013 5.53243 15.685 5.53243ZM12.9012 10.6309H15.36V7.25566H12.9012C12.4632 7.25566 12.1099 7.6117 12.1099 8.05319V9.83339C12.1099 10.2749 12.4632 10.6309 12.9012 10.6309Z" fill="#424750"/>
<path fill-rule="evenodd" clip-rule="evenodd" d="M43.8474 5.53243H40.0463C38.6897 5.53243 37.5875 6.64327 37.5875 8.01046V9.79066C37.5875 11.1579 38.6897 12.2687 40.0463 12.2687H41.742C41.9398 12.2687 42.1235 12.169 42.2365 12.0124L42.5615 11.5709V11.9269C42.5615 12.112 42.717 12.2687 42.9007 12.2687H43.8474C44.0311 12.2687 44.1866 12.112 44.1866 11.9269V5.87423C44.1724 5.67484 44.0311 5.53243 43.8474 5.53243ZM42.5474 10.6309H39.9898C39.5517 10.6309 39.1984 10.2749 39.1984 9.83339V8.05319C39.1984 7.6117 39.5517 7.25566 39.9898 7.25566H42.5474V10.6309Z" fill="#424750"/>
<path fill-rule="evenodd" clip-rule="evenodd" d="M29.6462 5.53243H33.4473C33.631 5.53243 33.7865 5.67484 33.7865 5.87423V11.9269C33.7865 12.112 33.631 12.2687 33.4473 12.2687H32.5006C32.3169 12.2687 32.1614 12.112 32.1614 11.9269V11.5709L31.8364 12.0124C31.7234 12.169 31.5397 12.2687 31.3418 12.2687H29.6462C28.2896 12.2687 27.1874 11.1579 27.1874 9.79066V8.01046C27.1874 6.64327 28.2896 5.53243 29.6462 5.53243ZM29.6038 10.6309H32.1614V7.25566H29.6038C29.1657 7.25566 28.8125 7.6117 28.8125 8.05319V9.83339C28.8125 10.2749 29.1657 10.6309 29.6038 10.6309Z" fill="#424750"/>
<path d="M49.2454 4.52128H50.8845C51.1389 4.52128 51.3367 4.76339 51.2802 5.03398L49.5986 13.1374C49.4997 13.6217 49.3725 14.0347 49.2171 14.4049C49.0617 14.7752 48.8638 15.0743 48.6095 15.3022C48.3551 15.53 48.0301 15.7152 47.6627 15.8291C47.2812 15.943 46.829 16 46.2638 16C46.066 16 45.854 16 45.6562 15.9715C45.635 15.9715 45.6103 15.968 45.5856 15.9644C45.5608 15.9608 45.5361 15.9573 45.5149 15.9573C45.2747 15.9288 45.1051 15.7009 45.1616 15.4588L45.416 14.2625C45.4584 14.0631 45.6421 13.9207 45.8399 13.935H45.9388C46.0801 13.9492 46.2214 13.9492 46.3768 13.9492C46.5605 13.9492 46.7019 13.8922 46.8008 13.7641C46.9138 13.6359 46.9986 13.4792 47.0692 13.3083C47.1399 13.1232 47.1964 12.9523 47.2247 12.7672C47.247 12.6209 47.2782 12.5013 47.3042 12.4013C47.3111 12.3748 47.3177 12.3496 47.3236 12.3257V12.2972L48.8497 4.84884C48.878 4.6637 49.0475 4.52128 49.2454 4.52128Z" fill="#424750"/>
<path d="M65.9478 6.52939L64.9021 4.67799L64.3934 7.17026H65.5804C65.8913 7.18451 66.1032 6.82847 65.9478 6.52939Z" fill="#424750"/>
</svg>
