<svg width="100" height="16" viewBox="0 0 100 16" fill="none" xmlns="http://www.w3.org/2000/svg">
<path fill-rule="evenodd" clip-rule="evenodd" d="M75.4657 6.73063C75.4657 6.18138 75.9136 5.73324 76.4624 5.73324H79.4797C79.7962 5.73324 80.0538 5.99096 80.0538 6.30947C80.0538 6.62621 79.7962 6.88393 79.4797 6.88393H75.4657V6.73063ZM76.4945 9.04723C76.5736 9.12646 76.6814 9.17195 76.7942 9.17195H79.4224C81.0236 9.17195 82.3672 7.86112 82.3386 6.25884C82.3116 4.70366 81.0388 3.44678 79.4797 3.44678H76.4624C74.9572 3.44678 73.6861 4.46446 73.3005 5.85113C73.2231 6.13074 73.1809 6.42566 73.1809 6.73056V9.32693C73.1809 11.1381 74.6525 12.6107 76.4624 12.6107H80.7745C81.0084 12.6107 81.197 12.4221 81.197 12.1878V10.7473C81.197 10.513 81.0084 10.3244 80.7745 10.3244H76.4624C75.9136 10.3244 75.4657 9.87619 75.4657 9.32693V8.01949L76.4945 9.04723Z" fill="#424750"/>
<path fill-rule="evenodd" clip-rule="evenodd" d="M89.331 3.44005H87.0917C86.9789 3.44005 86.8728 3.48385 86.7937 3.56308L85.748 4.5975V0.479766C85.748 0.21689 85.5343 0.00127986 85.2716 0.00127986H83.9381C83.7277 0.00127986 83.5508 0.136057 83.4886 0.323089C83.4818 0.344988 83.4801 0.368578 83.4801 0.392169V12.1878C83.4801 12.422 83.6721 12.6124 83.9044 12.6124H85.3541C85.5882 12.6124 85.7784 12.422 85.7784 12.1878V10.3193H85.7733V5.718H89.3866C89.927 5.718 90.3665 6.15776 90.3665 6.70025V12.1895C90.3665 12.422 90.5567 12.6124 90.7908 12.6124H92.2236C92.4576 12.6124 92.6462 12.422 92.6462 12.1895V6.75749C92.6462 4.92607 91.1611 3.44005 89.331 3.44005Z" fill="#424750"/>
<path fill-rule="evenodd" clip-rule="evenodd" d="M72.0201 6.75371V12.1822C72.0201 12.4163 71.8288 12.6079 71.5948 12.6079H70.1642C69.9299 12.6079 69.7385 12.4163 69.7385 12.1822V6.70045C69.7385 6.1577 69.3025 5.71591 68.7601 5.71591H67.2977C67.4094 6.04059 67.4681 6.39183 67.4681 6.75371V12.1822C67.4681 12.4163 67.2764 12.6079 67.0424 12.6079H65.6119C65.3778 12.6079 65.1916 12.4163 65.1916 12.1822V6.70045C65.1916 6.16827 64.7663 5.73189 64.2397 5.72124C64.2293 5.71591 64.2184 5.71591 64.2079 5.71591H62.8952V12.1822C62.8952 12.4163 62.709 12.6079 62.475 12.6079H61.0231C60.7944 12.6079 60.6029 12.4163 60.6029 12.1822V3.83198C60.6029 3.80526 60.6029 3.78404 60.6084 3.76265C60.6723 3.57646 60.8476 3.44346 61.0602 3.44346H62.3898C62.6558 3.44346 62.8687 3.65628 62.8687 3.91704V4.59829L63.9111 3.56581C63.9908 3.48591 64.0972 3.44346 64.2089 3.44346H64.1356C64.2631 3.44346 64.41 3.44879 64.5375 3.46469H64.543C65.3033 3.55516 65.9894 3.90115 66.5054 4.41734C66.5374 4.44922 66.5639 4.48127 66.5907 4.51306L67.5478 3.56581C67.6275 3.48591 67.734 3.44346 67.8457 3.44346H68.7068C70.5363 3.44346 72.0201 4.92289 72.0201 6.75371Z" fill="#424750"/>
<path fill-rule="evenodd" clip-rule="evenodd" d="M99.0891 3.44607H97.4087C97.3182 3.44607 97.2311 3.47491 97.1591 3.52826C97.1413 3.5401 97.1245 3.55447 97.1092 3.56969L97.1084 3.57062L96.0778 4.60606V3.86943C96.0778 3.70861 95.9882 3.56893 95.8562 3.49697C95.8207 3.47744 95.7808 3.46307 95.7402 3.45461C95.7123 3.44954 95.6835 3.44607 95.6548 3.44607H94.2105C94.0319 3.44607 93.8797 3.55625 93.818 3.71284C93.7984 3.76103 93.7874 3.81439 93.7874 3.86943V12.189C93.7874 12.4228 93.9769 12.6124 94.2105 12.6124H95.6548C95.8884 12.6124 96.0778 12.4228 96.0778 12.189V6.16141C96.0778 5.92771 96.2672 5.73805 96.5009 5.73805H99.0891C99.3228 5.73805 99.5122 5.54857 99.5122 5.31478V3.86943C99.5122 3.63573 99.3228 3.44607 99.0891 3.44607Z" fill="#424750"/>
<path fill-rule="evenodd" clip-rule="evenodd" d="M29.7321 12.1154C29.7321 12.3746 29.5202 12.5867 29.2611 12.5867H27.9124C27.6512 12.5867 27.4414 12.3746 27.4414 12.1154V0.471693C27.4414 0.212538 27.6512 0.000309643 27.9124 0.000309643H29.3096C29.542 0.000309643 29.7321 0.190554 29.7321 0.423075V12.1154Z" fill="#424750"/>
<path fill-rule="evenodd" clip-rule="evenodd" d="M49.1676 12.1155C49.1676 12.3746 48.9556 12.5868 48.6966 12.5868H47.3479C47.0868 12.5868 46.877 12.3746 46.877 12.1155V0.471734C46.877 0.212495 47.0868 0.000350928 47.3479 0.000350928H48.7451C48.9774 0.000350928 49.1676 0.190595 49.1676 0.423116V12.1155Z" fill="#424750"/>
<path fill-rule="evenodd" clip-rule="evenodd" d="M6.86015 10.2977H3.26658C2.72581 10.2977 2.28728 9.85888 2.28728 9.31774V6.70082C2.28728 6.15968 2.72497 5.7217 3.26573 5.72085H6.86015V10.2977ZM8.72496 0H7.28263C7.04942 0 6.86015 0.189399 6.86015 0.422765V3.43285H3.15166C2.93874 3.43285 2.73088 3.45399 2.52978 3.49373C1.07816 3.84463 0 5.15351 0 6.71267V9.27462C0 11.1035 1.48204 12.5866 3.30967 12.5866H5.53105C5.62145 12.5866 5.70849 12.5578 5.78031 12.5046C5.79805 12.4927 5.81495 12.4783 5.83016 12.4631L5.831 12.4623L6.861 11.4273V12.1638C6.861 12.3963 7.05111 12.5866 7.28347 12.5866H8.69116C8.90071 12.5866 9.07646 12.4521 9.14067 12.2661C9.14574 12.2433 9.14743 12.2196 9.14743 12.1951V0.422765C9.14743 0.189399 8.95816 0 8.72496 0Z" fill="#424750"/>
<path fill-rule="evenodd" clip-rule="evenodd" d="M43.4482 10.312H39.8428C39.302 10.312 38.8635 9.87321 38.8635 9.33207V6.70078C38.8635 6.15964 39.3012 5.72165 39.8419 5.72081H43.4482V10.312ZM45.313 3.43285H39.7397C39.5268 3.43285 39.3189 3.45399 39.1178 3.49373C37.6662 3.84463 36.588 5.15351 36.588 6.71267V9.27462C36.588 11.1035 38.0701 12.5866 39.8977 12.5866H42.1317C42.2433 12.5866 42.3506 12.5426 42.4292 12.464L43.4718 11.4316V12.1097C43.4718 12.3718 43.6865 12.5866 43.9484 12.5866H45.2792C45.4887 12.5866 45.6645 12.4521 45.7287 12.2661C45.7338 12.2433 45.7355 12.2196 45.7355 12.1951V3.85562C45.7355 3.62225 45.5462 3.43285 45.313 3.43285Z" fill="#424750"/>
<path fill-rule="evenodd" clip-rule="evenodd" d="M57.1702 10.312H53.5648C53.0241 10.312 52.5855 9.87321 52.5855 9.33207V6.70078C52.5855 6.15964 53.0232 5.72165 53.564 5.72081H57.1702V10.312ZM59.035 3.43285H53.4617C53.2488 3.43285 53.0409 3.45399 52.8398 3.49373C51.3882 3.84463 50.3101 5.15351 50.3101 6.71267V9.27462C50.3101 11.1035 51.7913 12.5866 53.6197 12.5866H55.8538C55.9653 12.5866 56.0718 12.5426 56.1512 12.464L57.1939 11.4316V12.1097C57.1939 12.3718 57.4076 12.5866 57.6704 12.5866H59.0012C59.2108 12.5866 59.3865 12.4521 59.4507 12.2661C59.4558 12.2433 59.4575 12.2196 59.4575 12.1951V3.85562C59.4575 3.62225 59.2682 3.43285 59.035 3.43285Z" fill="#424750"/>
<path fill-rule="evenodd" clip-rule="evenodd" d="M20.5813 10.2986H16.986C16.4452 10.2978 16.0076 9.85982 16.0076 9.31868V6.70176C16.0076 6.16062 16.4461 5.72179 16.9869 5.72179H20.5813V10.2986ZM22.861 3.7601C22.7968 3.57408 22.621 3.43964 22.4115 3.43964H21.0038C20.7706 3.43964 20.5813 3.62904 20.5813 3.86241V4.57688L20.5745 4.56843L19.5699 3.56309C19.5023 3.49545 19.3679 3.43964 19.2716 3.43964H17.03C15.2023 3.43964 13.7211 4.92186 13.7211 6.75074V9.31354C13.7211 10.8727 14.7993 12.1816 16.2509 12.5325C16.452 12.5722 16.6599 12.5934 16.8728 12.5934H20.5813V12.6483C20.5813 12.8293 20.545 13.0102 20.4579 13.1692C20.272 13.5099 19.9104 13.7407 19.4947 13.7407H16.6785C16.0853 13.7407 15.7837 14.4569 16.2011 14.8788C16.5272 15.2111 16.8593 15.5502 17.1043 15.8005C17.2319 15.929 17.4017 16 17.5817 16H19.5023C19.9062 16 20.2923 15.9298 20.6489 15.8005C21.9543 15.327 22.8677 14.0654 22.8677 12.5841V3.83112C22.8677 3.8066 22.866 3.78293 22.861 3.7601Z" fill="#424750"/>
<path fill-rule="evenodd" clip-rule="evenodd" d="M12.5778 3.85579V12.164C12.5778 12.3974 12.3886 12.5867 12.1553 12.5867H10.713C10.4796 12.5867 10.2905 12.3974 10.2905 12.164V3.85579C10.2905 3.62234 10.4796 3.43303 10.713 3.43303H12.1553C12.3886 3.43303 12.5778 3.62234 12.5778 3.85579Z" fill="#424750"/>
<path fill-rule="evenodd" clip-rule="evenodd" d="M12.5778 0.423137V1.86612C12.5778 2.09957 12.3886 2.28888 12.1553 2.28888H10.713C10.4796 2.28888 10.2905 2.09957 10.2905 1.86612V0.423137C10.2905 0.189686 10.4796 0.000371571 10.713 0.000371571H12.1553C12.3886 0.000371571 12.5778 0.189686 12.5778 0.423137Z" fill="#424750"/>
<path fill-rule="evenodd" clip-rule="evenodd" d="M26.2984 3.85579V12.164C26.2984 12.3974 26.1092 12.5867 25.8759 12.5867H24.4335C24.2002 12.5867 24.0111 12.3974 24.0111 12.164V3.85579C24.0111 3.62234 24.2002 3.43303 24.4335 3.43303H25.8759C26.1092 3.43303 26.2984 3.62234 26.2984 3.85579Z" fill="#424750"/>
<path fill-rule="evenodd" clip-rule="evenodd" d="M26.2984 0.423137V1.86612C26.2984 2.09957 26.1092 2.28888 25.8759 2.28888H24.4335C24.2002 2.28888 24.0111 2.09957 24.0111 1.86612V0.423137C24.0111 0.189686 24.2002 0.000371571 24.4335 0.000371571H25.8759C26.1092 0.000371571 26.2984 0.189686 26.2984 0.423137Z" fill="#424750"/>
<path fill-rule="evenodd" clip-rule="evenodd" d="M29.7321 7.77347C30.1914 7.28095 33.0116 4.4929 33.8436 3.59571C33.9368 3.49678 34.0678 3.43962 34.2032 3.43962H36.0988C36.5248 3.43962 36.7575 3.95371 36.4582 4.25319C35.2925 5.41977 32.6632 8.01318 32.6632 8.01318L36.4597 11.8479C36.7348 12.1205 36.5399 12.5867 36.1508 12.5867H34.1721C34.0367 12.5867 33.9058 12.5296 33.8125 12.4306C32.9738 11.5291 30.1737 8.763 29.7321 8.28798V7.77347Z" fill="#424750"/>
</svg>
