<svg width="89" height="25" viewBox="0 0 89 25" fill="none" xmlns="http://www.w3.org/2000/svg">
<path fill-rule="evenodd" clip-rule="evenodd" d="M43.8258 9.41338C41.4999 9.31549 39.1695 11.3407 39.1611 14.0209C39.1526 16.7089 41.4622 18.6757 43.7881 18.6851C46.1074 18.6943 48.4359 16.7616 48.4524 14.0578C48.4691 11.3294 46.0891 9.32138 43.8258 9.41338ZM50.9145 8.15103C50.9145 8.76855 50.918 9.38615 50.9216 10.0037C50.9296 11.3796 50.9375 12.7554 50.906 14.1301C50.83 17.4468 48.7124 19.9308 46.0081 20.783C44.2785 21.3282 42.566 21.2586 40.9248 20.5242C38.8142 19.58 37.4399 17.9619 36.923 15.6882C36.3093 12.9889 37.038 10.6682 39.0437 8.77244C40.2025 7.67691 41.623 7.11362 43.2037 6.97386C44.922 6.82162 46.4907 7.25833 47.9072 8.24233L47.9227 8.25321C47.9794 8.2929 48.0362 8.33264 48.0938 8.3708C48.239 8.46703 48.3171 8.42327 48.33 8.25385C48.3337 8.207 48.3338 8.15986 48.3339 8.11266L48.334 8.07291C48.3344 8.02762 48.3343 7.98233 48.3342 7.93703C48.3342 7.89174 48.3341 7.84644 48.3345 7.80115C48.3391 7.19538 48.3436 6.58961 48.3481 5.98385C48.3584 4.5974 48.3687 3.21098 48.3808 1.82468C48.3879 1.05432 48.9215 0.488207 49.6246 0.49456C50.3502 0.501148 50.8926 1.03856 50.8968 1.80962C50.9051 3.31618 50.9035 4.82297 50.9019 6.32967V6.33137V6.33142V6.33147V6.33152V6.33157V6.33162V6.33167V6.33171C50.9012 6.93818 50.9006 7.54462 50.9006 8.15103H50.9145ZM2.53201 19.4208V19.9337C2.5318 20.2321 2.53258 20.5305 2.53336 20.8289V20.8289V20.8289V20.8289V20.829V20.829V20.829V20.829C2.53518 21.5274 2.53701 22.2258 2.52613 22.9241C2.51624 23.5622 2.0466 24.053 1.43695 24.1118C0.768951 24.1758 0.24001 23.8175 0.064951 23.1883C0.0115393 22.9956 0.011304 22.801 0.0110687 22.6045C0.0104221 21.7376 0.00802051 20.8706 0.00561893 20.0036C0.000155221 18.0312 -0.00530861 16.0588 0.0098922 14.0864C0.0254216 12.0862 0.693657 10.3203 2.13742 8.90642C3.39977 7.67066 4.93601 6.98478 6.69883 6.82525C6.99653 6.79818 7.29723 6.79819 7.59681 6.79819H7.60448C14.552 6.79678 21.4998 6.79701 28.4475 6.79819C28.4796 6.79819 28.5116 6.79786 28.5436 6.79753C28.7218 6.79571 28.8995 6.79389 29.0762 6.84854C29.6748 7.03348 30.0461 7.58548 29.9715 8.19983C29.9059 8.74219 29.4042 9.26713 28.7624 9.26383C26.1292 9.25086 23.4958 9.25278 20.8625 9.2547C19.9615 9.25535 19.0605 9.25601 18.1595 9.25607L16.2188 9.25609H16.2065C13.6255 9.25613 11.0443 9.25616 8.46307 9.2556C8.07429 9.25541 7.68623 9.26898 7.29799 9.28255L7.2975 9.28257C7.18824 9.28638 7.07897 9.2902 6.96966 9.29372C5.30377 9.34807 3.24848 10.5431 2.64966 12.7377C2.1546 14.5528 2.73319 16.2963 4.26942 17.5027C5.21201 18.2429 6.29413 18.5841 7.51013 18.5815C12.6281 18.5704 17.746 18.5718 22.8639 18.5732H22.8639H22.8639H22.864H22.864H22.864H22.864H22.8641C24.5881 18.5737 26.3122 18.5742 28.0362 18.5742C28.2325 18.5742 28.4266 18.5591 28.6224 18.5377C29.1873 18.4758 29.7273 18.8071 29.9292 19.3156C30.1421 19.8528 29.9645 20.465 29.5028 20.8172C29.2452 21.0135 28.9522 21.0384 28.6447 21.038C27.574 21.0356 26.5032 21.0359 25.4325 21.0362H25.4302C24.9158 21.0363 24.4015 21.0365 23.8871 21.0363C22.3551 21.0358 20.8231 21.0342 19.2911 21.0325H19.2911H19.2911H19.291H19.291H19.291H19.291H19.291C15.4007 21.0284 11.5104 21.0242 7.62024 21.0394C5.88401 21.0459 4.31083 20.625 2.91319 19.5824C2.8998 19.5724 2.88652 19.5618 2.87297 19.551C2.79368 19.4876 2.70524 19.417 2.53201 19.4208ZM60.4608 13.8693C60.4806 11.2754 62.6328 9.24343 65.1378 9.25661C67.6773 9.27896 69.77 11.3813 69.747 13.9357C69.7237 16.5366 67.5881 18.5512 65.1168 18.5458C62.4423 18.5397 60.4418 16.3545 60.4608 13.8693ZM60.8867 8.19451C60.8129 8.25343 60.7377 8.31342 60.6256 8.28744C60.5621 8.19341 60.5683 8.09068 60.5744 7.98928C60.5764 7.95721 60.5783 7.92528 60.578 7.89379C60.5649 6.34662 60.5537 4.79945 60.5425 3.25228L60.5425 3.2434L60.5329 1.91779C60.5327 1.89341 60.5327 1.869 60.5328 1.84457C60.533 1.76315 60.5332 1.68163 60.5251 1.60108C60.4486 0.860377 59.6976 0.346024 58.979 0.539436C58.3797 0.700848 58.0237 1.15402 58.0152 1.80344C58.0016 2.84485 57.998 3.88673 57.9971 4.92814C57.9964 6.00689 57.9968 7.08561 57.9972 8.16431C57.9979 10.0448 57.9986 11.9252 57.9936 13.8056C57.9912 14.7091 58.1623 15.5818 58.4696 16.419C59.6463 19.6216 62.9449 21.3841 66.0653 20.9305C67.6557 20.6994 69.0658 20.062 70.163 18.8926C71.9489 16.9893 72.6173 14.739 71.9602 12.1707C71.2609 9.43779 69.5018 7.73167 66.7898 7.0272C64.6766 6.47826 62.7267 6.91026 60.9444 8.15049C60.9248 8.16408 60.9058 8.17925 60.8867 8.19449L60.8867 8.19451ZM27.5383 16.7034C27.3766 16.7762 27.2458 16.7713 27.1229 16.7667C27.0937 16.7657 27.0649 16.7646 27.0362 16.7646C25.1614 16.7651 23.2865 16.7643 21.4117 16.7635L21.4029 16.7635C16.6369 16.7616 11.871 16.7597 7.10514 16.7778C5.88326 16.7827 4.51173 15.9025 4.16726 14.4827C3.90232 13.3907 4.17667 12.4312 4.92091 11.642C5.5049 11.0229 6.27432 10.6985 7.14961 10.6985C13.8446 10.698 20.5399 10.6982 27.2349 10.6985H27.2618L27.3223 10.6982H27.3223C27.3928 10.6978 27.4633 10.6974 27.5336 10.702C27.6985 10.7124 27.7456 10.8032 27.6781 10.9467C27.6295 11.05 27.5778 11.152 27.5261 11.254C27.4618 11.381 27.3975 11.5079 27.339 11.6375C27.1776 11.9961 27.0746 12.3752 26.9971 12.7587C26.9564 12.9613 26.8564 13.0448 26.659 13.0385C26.5786 13.0358 26.4981 13.0367 26.4176 13.0376L26.4174 13.0376C26.3772 13.038 26.3369 13.0385 26.2967 13.0385H7.45267C7.41647 13.0385 7.38024 13.0382 7.34401 13.0378H7.34398H7.34394H7.34391H7.34387H7.34384C7.25932 13.0371 7.17476 13.0364 7.09032 13.0396C6.67032 13.0559 6.36679 13.3396 6.34114 13.7366C6.3209 14.0509 6.65573 14.4389 7.00796 14.4898C7.11583 14.5054 7.22658 14.5029 7.3371 14.5003L7.33719 14.5003C7.37828 14.4994 7.41933 14.4985 7.4602 14.4985C12.139 14.4988 16.8178 14.4988 21.4964 14.4987H21.5301L26.2136 14.4987C26.2467 14.4987 26.28 14.4998 26.3133 14.5009C26.3861 14.5034 26.459 14.5058 26.5306 14.4966C26.7969 14.4629 26.883 14.5724 26.9277 14.8394C27.0343 15.4766 27.2506 16.0872 27.5383 16.7034ZM81.0555 9.35612C83.6602 9.35588 85.7678 11.5989 85.6623 14.0121C85.7663 16.4399 83.4913 18.6479 81.0087 18.6255C78.6278 18.6044 76.4038 16.4554 76.4245 13.9651C76.4442 11.6008 78.44 9.35636 81.0555 9.35612ZM88.1511 14.0239C88.1687 9.98953 85.0767 6.95682 81.0847 6.88435C77.0788 6.92694 73.9732 9.93894 73.9584 13.9641C73.9431 17.9818 76.9939 21.0738 81.0249 21.0912C85.0504 21.1086 88.1337 18.0439 88.1511 14.0239ZM34.6138 15.4026C34.6137 15.8078 34.6133 16.213 34.613 16.6181C34.6119 17.6761 34.6109 18.7341 34.6157 19.792C34.6183 20.329 34.3987 20.7255 33.9234 20.9673C33.2357 21.3177 32.399 20.9612 32.1634 20.2264C32.1126 20.0676 32.0914 19.9048 32.0917 19.7365C32.0923 18.5724 32.0923 17.4083 32.0922 16.2441C32.0921 14.5272 32.092 12.8103 32.0943 11.0935C32.0952 10.4546 32.4317 9.97157 32.9663 9.8024C33.4954 9.63487 34.031 9.80899 34.378 10.2516C34.5766 10.5052 34.6166 10.7946 34.6157 11.1036C34.6131 12.134 34.6134 13.1645 34.6137 14.1949C34.6138 14.5975 34.6139 15.0001 34.6138 15.4026ZM53.1818 14.1508C53.1823 14.5802 53.1829 15.0096 53.1829 15.4389H53.1836C53.1836 15.8675 53.183 16.2962 53.1824 16.7248C53.1809 17.7893 53.1794 18.8539 53.1871 19.9185C53.1918 20.5829 53.689 21.0938 54.3393 21.1467C54.9589 21.1973 55.5313 20.7747 55.6657 20.15C55.7033 19.9756 55.7033 19.7909 55.7033 19.6109C55.7057 16.8509 55.7052 14.0909 55.7047 11.3309L55.705 11.2561C55.7057 11.1451 55.7063 11.0338 55.6944 10.9241C55.6236 10.2808 55.0789 9.79165 54.437 9.78882C53.7217 9.78577 53.1901 10.3074 53.1854 11.0502C53.1791 12.0837 53.1804 13.1173 53.1818 14.1508ZM35.0168 6.88539C35.015 7.79551 34.2415 8.5628 33.3326 8.55645C32.419 8.5501 31.6535 7.77739 31.6625 6.87057C31.6717 5.94845 32.4305 5.19598 33.3455 5.20139C34.2601 5.2068 35.0187 5.97151 35.0168 6.88539ZM52.6855 6.82758C52.6792 7.73111 53.4368 8.49605 54.3465 8.50522C55.2613 8.5144 56.0196 7.78146 56.0441 6.86522C56.0679 5.96593 55.3114 5.18099 54.4069 5.16617C53.469 5.15064 52.6921 5.90075 52.6855 6.82758Z" fill="#424750"/>
</svg>
