<svg width="123" height="16" viewBox="0 0 123 16" fill="none" xmlns="http://www.w3.org/2000/svg">
<path fill-rule="evenodd" clip-rule="evenodd" d="M40.4372 10.1463H43.9382V5.46341H40.4372C39.8331 5.46341 39.2702 6.02953 39.2702 6.63415V8.97561C39.2702 9.58031 39.8331 10.1463 40.4372 10.1463ZM54.4413 10.1463H57.9423V5.46341H54.4413C53.8372 5.46341 53.2743 6.02953 53.2743 6.63415V8.97561C53.2743 9.58031 53.8372 10.1463 54.4413 10.1463ZM46.2722 3.70732V11.9024C46.2722 12.1607 45.947 12.4878 45.6887 12.4878L44.5219 12.5001C44.2635 12.5001 43.9382 12.1608 43.9382 11.9024V11.5122L43.4087 12.1501C43.2474 12.3701 42.8494 12.4878 42.5767 12.4878H40.4372C38.5599 12.4878 36.9362 10.8545 36.9362 8.97561V6.63415C36.9362 4.75525 38.5599 3.12195 40.4372 3.12195H45.6887C45.9466 3.12195 46.2722 3.44932 46.2722 3.70732ZM60.2763 3.70732V11.9024C60.2763 12.1607 59.951 12.4878 59.6928 12.4878L58.526 12.5001C58.2676 12.5001 57.9423 12.1608 57.9423 11.9024V11.5122L57.4128 12.1501C57.2515 12.3701 56.8535 12.4878 56.5808 12.4878H54.4413C52.564 12.4878 50.9403 10.8545 50.9403 8.97561V6.63415C50.9403 4.75525 52.564 3.12195 54.4413 3.12195H59.6928C59.9506 3.12195 60.2763 3.44932 60.2763 3.70732ZM21.3762 5.46341H17.8752C17.271 5.46341 16.7082 6.02953 16.7082 6.63415V8.97561C16.7082 9.5804 17.271 10.1463 17.8752 10.1463H21.3762V5.46341ZM23.7102 3.70732V12.6829C23.7102 14.5618 22.0865 16 20.2092 16H18.4052C18.1367 16 17.8838 15.874 17.7219 15.6596L16.695 14.2995C16.5244 14.0737 16.6198 13.6585 16.9027 13.6585H20.2092C20.8133 13.6585 21.3762 13.2875 21.3762 12.6829V12.4878H17.8752C15.998 12.4878 14.3742 10.8545 14.3742 8.97561V6.63415C14.3742 4.75533 15.998 3.12195 17.8752 3.12195H20.0147C20.2824 3.12195 20.5742 3.33802 20.7632 3.5122L21.3762 4.09756V3.70732C21.3762 3.44941 21.7021 3.12195 21.9597 3.12195H23.1267C23.3848 3.12195 23.7102 3.44888 23.7102 3.70732ZM2.70412 8.97561C2.70412 9.58023 3.26703 10.1463 3.87113 10.1463H7.37214V5.46341H3.87113C3.26703 5.46341 2.70412 6.02953 2.70412 6.63415V8.97561ZM9.12264 0C9.38095 0 9.70614 0.327014 9.70614 0.585366V11.9024C9.70614 12.1607 9.38095 12.4878 9.12264 12.4878H7.95564C7.69742 12.4878 7.37214 12.1609 7.37214 11.9024V11.5122L6.76028 12.169C6.59451 12.3537 6.27485 12.4878 6.01063 12.4878H3.87113C1.99383 12.4878 0.370117 10.8545 0.370117 8.97561V6.65201C0.370117 4.77311 1.99383 3.12195 3.87113 3.12195H7.37214V0.585366C7.37214 0.327014 7.69742 0 7.95564 0H9.12264ZM33.2407 7.80488L36.4891 3.68004C36.6698 3.45523 36.5099 3.12114 36.2217 3.12114H34.3638C34.2234 3.12114 34.0904 3.18443 34.0015 3.29344L30.7122 7.41463V0.585366C30.7122 0.327014 30.3868 0 30.1287 0H28.9617C28.7035 0 28.3782 0.327014 28.3782 0.585366V11.9024C28.3782 12.1608 28.7035 12.4878 28.9617 12.4878H30.1287C30.3869 12.4878 30.7122 12.1608 30.7122 11.9024V8.19512L34.0032 12.3254C34.092 12.4358 34.2258 12.5001 34.3675 12.5001H36.2234C36.5116 12.5001 36.6716 12.1658 36.4908 11.9411L33.2407 7.80488ZM25.4607 0C25.2026 0 24.8772 0.327014 24.8772 0.585366V1.7561C24.8772 2.01445 25.2026 2.34146 25.4607 2.34146H26.6277C26.8858 2.34146 27.2112 2.01445 27.2112 1.7561V0.585366C27.2112 0.327014 26.8858 0 26.6277 0H25.4607ZM25.4607 3.12195C25.2026 3.12195 24.8772 3.44905 24.8772 3.70732V11.9024C24.8772 12.1607 25.2941 12.5 25.5522 12.5L26.6277 12.4878C26.8858 12.4878 27.2112 12.1607 27.2112 11.9024V3.70732C27.2112 3.44905 26.8858 3.12195 26.6277 3.12195H25.4607ZM11.4566 0C11.1985 0 10.8731 0.327014 10.8731 0.585366V1.7561C10.8731 2.01445 11.1985 2.34146 11.4566 2.34146H12.6237C12.8818 2.34146 13.2072 2.01445 13.2072 1.7561V0.585366C13.2072 0.327014 12.8818 0 12.6237 0H11.4566ZM11.4566 3.12195C11.1985 3.12195 10.8731 3.44905 10.8731 3.70732V11.9024C10.8731 12.1607 11.1985 12.4878 11.4566 12.4878H12.6237C12.8818 12.4878 13.2072 12.1607 13.2072 11.9024V3.70732C13.2072 3.44905 12.8818 3.12195 12.6237 3.12195H11.4566ZM49.7733 0.585366V11.9024C49.7733 12.1607 49.448 12.4878 49.1898 12.4878H48.0227C47.7645 12.4878 47.4392 12.1607 47.4392 11.9024V0.585366C47.4392 0.327014 47.7645 0 48.0227 0H49.1898C49.448 0 49.7733 0.327014 49.7733 0.585366Z" fill="#424750"/>
<path d="M69.428 7.63789C70.2473 8.1114 70.657 8.82613 70.657 9.78209C70.657 10.5772 70.3765 11.2294 69.8154 11.7387C69.2544 12.2479 68.5642 12.5025 67.7448 12.5025H63.7773V3.12168H67.4643C68.2658 3.12168 68.9382 3.37183 69.4814 3.87215C70.0336 4.36352 70.3097 4.99338 70.3097 5.76172C70.3097 6.53899 70.0158 7.16438 69.428 7.63789ZM67.4643 4.85044H65.6208V6.91423H67.4643C67.7493 6.91423 67.9853 6.81595 68.1723 6.6194C68.3682 6.42285 68.4662 6.17716 68.4662 5.88233C68.4662 5.5875 68.3727 5.34181 68.1857 5.14526C67.9986 4.94871 67.7582 4.85044 67.4643 4.85044ZM67.7448 10.7738C68.0565 10.7738 68.3148 10.671 68.5196 10.4656C68.7245 10.2511 68.8269 9.98311 68.8269 9.66148C68.8269 9.34878 68.7245 9.08969 68.5196 8.88421C68.3148 8.66979 68.0565 8.56258 67.7448 8.56258H65.6208V10.7738H67.7448Z" fill="#424750"/>
<path d="M75.2869 12.6902C74.2449 12.6902 73.39 12.3953 72.722 11.8057C72.0541 11.216 71.7202 10.4253 71.7202 9.43366V3.12168H73.5503V9.28624C73.5503 9.77762 73.6883 10.1663 73.9644 10.4522C74.2494 10.738 74.6902 10.881 75.2869 10.881C75.8836 10.881 76.3199 10.738 76.596 10.4522C76.881 10.1663 77.0235 9.77762 77.0235 9.28624V3.12168H78.867V9.43366C78.867 10.4253 78.533 11.216 77.8651 11.8057C77.1972 12.3953 76.3378 12.6902 75.2869 12.6902Z" fill="#424750"/>
<path d="M83.7204 12.6902C82.7942 12.6902 82.015 12.4847 81.3827 12.0737C80.7504 11.6538 80.3051 11.0865 80.0468 10.3717L81.6231 9.44706C81.9883 10.403 82.7052 10.881 83.7738 10.881C84.2904 10.881 84.6689 10.7872 84.9093 10.5996C85.1498 10.4119 85.27 10.1752 85.27 9.8893C85.27 9.55874 85.1231 9.30411 84.8292 9.12543C84.5353 8.93781 84.0098 8.73679 83.2529 8.52237C82.8343 8.39729 82.4781 8.27222 82.1842 8.14714C81.8992 8.02206 81.6098 7.85678 81.3159 7.65129C81.0309 7.43687 80.8127 7.16885 80.6613 6.84722C80.5099 6.52559 80.4342 6.15036 80.4342 5.72152C80.4342 4.87277 80.7325 4.19824 81.3292 3.69793C81.9348 3.18868 82.6606 2.93406 83.5067 2.93406C84.2637 2.93406 84.9271 3.12168 85.4971 3.49691C86.076 3.86321 86.5257 4.37693 86.8463 5.03805L85.2967 5.93594C84.9227 5.13186 84.326 4.72982 83.5067 4.72982C83.1237 4.72982 82.8209 4.81917 82.5983 4.99785C82.3846 5.1676 82.2777 5.39095 82.2777 5.66791C82.2777 5.96274 82.3979 6.20396 82.6384 6.39158C82.8877 6.57026 83.3597 6.76681 84.0544 6.98123C84.3394 7.07057 84.5531 7.14205 84.6956 7.19565C84.847 7.24032 85.0474 7.31626 85.2967 7.42347C85.555 7.52175 85.7509 7.61556 85.8845 7.7049C86.027 7.79424 86.1873 7.91485 86.3654 8.06673C86.5435 8.21861 86.6771 8.37496 86.7662 8.53577C86.8641 8.69659 86.9443 8.89314 87.0066 9.12543C87.0779 9.34878 87.1135 9.59447 87.1135 9.8625C87.1135 10.7291 86.7973 11.417 86.165 11.9263C85.5416 12.4355 84.7268 12.6902 83.7204 12.6902Z" fill="#424750"/>
<path d="M88.2506 3.12168H90.0941V12.5025H88.2506V3.12168Z" fill="#424750"/>
<path d="M97.2353 3.12168H99.0788V12.5025H97.6761L93.6686 6.76681V12.5025H91.8251V3.12168H93.2277L97.2353 8.844V3.12168Z" fill="#424750"/>
<path d="M102.657 10.7336H106.598V12.5025H100.813V3.12168H106.531V4.89064H102.657V6.88742H106.197V8.62958H102.657V10.7336Z" fill="#424750"/>
<path d="M111.09 12.6902C110.164 12.6902 109.384 12.4847 108.752 12.0737C108.12 11.6538 107.674 11.0865 107.416 10.3717L108.992 9.44706C109.358 10.403 110.075 10.881 111.143 10.881C111.66 10.881 112.038 10.7872 112.279 10.5996C112.519 10.4119 112.639 10.1752 112.639 9.8893C112.639 9.55874 112.492 9.30411 112.199 9.12543C111.905 8.93781 111.379 8.73679 110.622 8.52237C110.204 8.39729 109.847 8.27222 109.554 8.14714C109.269 8.02206 108.979 7.85678 108.685 7.65129C108.4 7.43687 108.182 7.16885 108.031 6.84722C107.879 6.52559 107.804 6.15036 107.804 5.72152C107.804 4.87277 108.102 4.19824 108.699 3.69793C109.304 3.18868 110.03 2.93406 110.876 2.93406C111.633 2.93406 112.297 3.12168 112.866 3.49691C113.445 3.86321 113.895 4.37693 114.216 5.03805L112.666 5.93594C112.292 5.13186 111.695 4.72982 110.876 4.72982C110.493 4.72982 110.19 4.81917 109.968 4.99785C109.754 5.1676 109.647 5.39095 109.647 5.66791C109.647 5.96274 109.767 6.20396 110.008 6.39158C110.257 6.57026 110.729 6.76681 111.424 6.98123C111.709 7.07057 111.922 7.14205 112.065 7.19565C112.216 7.24032 112.417 7.31626 112.666 7.42347C112.924 7.52175 113.12 7.61556 113.254 7.7049C113.396 7.79424 113.557 7.91485 113.735 8.06673C113.913 8.21861 114.046 8.37496 114.136 8.53577C114.234 8.69659 114.314 8.89314 114.376 9.12543C114.447 9.34878 114.483 9.59447 114.483 9.8625C114.483 10.7291 114.167 11.417 113.534 11.9263C112.911 12.4355 112.096 12.6902 111.09 12.6902Z" fill="#424750"/>
<path d="M118.591 12.6902C117.665 12.6902 116.885 12.4847 116.253 12.0737C115.621 11.6538 115.176 11.0865 114.917 10.3717L116.494 9.44706C116.859 10.403 117.576 10.881 118.644 10.881C119.161 10.881 119.539 10.7872 119.78 10.5996C120.02 10.4119 120.141 10.1752 120.141 9.8893C120.141 9.55874 119.994 9.30411 119.7 9.12543C119.406 8.93781 118.88 8.73679 118.123 8.52237C117.705 8.39729 117.349 8.27222 117.055 8.14714C116.77 8.02206 116.48 7.85678 116.186 7.65129C115.901 7.43687 115.683 7.16885 115.532 6.84722C115.38 6.52559 115.305 6.15036 115.305 5.72152C115.305 4.87277 115.603 4.19824 116.2 3.69793C116.805 3.18868 117.531 2.93406 118.377 2.93406C119.134 2.93406 119.798 3.12168 120.368 3.49691C120.946 3.86321 121.396 4.37693 121.717 5.03805L120.167 5.93594C119.793 5.13186 119.197 4.72982 118.377 4.72982C117.994 4.72982 117.691 4.81917 117.469 4.99785C117.255 5.1676 117.148 5.39095 117.148 5.66791C117.148 5.96274 117.268 6.20396 117.509 6.39158C117.758 6.57026 118.23 6.76681 118.925 6.98123C119.21 7.07057 119.424 7.14205 119.566 7.19565C119.717 7.24032 119.918 7.31626 120.167 7.42347C120.426 7.52175 120.621 7.61556 120.755 7.7049C120.898 7.79424 121.058 7.91485 121.236 8.06673C121.414 8.21861 121.548 8.37496 121.637 8.53577C121.735 8.69659 121.815 8.89314 121.877 9.12543C121.948 9.34878 121.984 9.59447 121.984 9.8625C121.984 10.7291 121.668 11.417 121.036 11.9263C120.412 12.4355 119.597 12.6902 118.591 12.6902Z" fill="#424750"/>
</svg>
