<svg width="97" height="16" viewBox="0 0 97 16" fill="none" xmlns="http://www.w3.org/2000/svg">
<g clip-path="url(#clip0)">
<g clip-path="url(#clip1)">
<path d="M12.2912 3.18286H10.9555C10.6925 3.18286 10.4822 3.39321 10.4822 3.65616V12.1018C10.4822 12.3648 10.6925 12.5751 10.9555 12.5751H12.2912C12.5542 12.5751 12.7645 12.3648 12.7645 12.1018V3.65616C12.7645 3.39321 12.5542 3.18286 12.2912 3.18286Z" fill="#424750"/>
<path d="M12.249 -0.119629H10.9132C10.6503 -0.119629 10.4399 0.0907244 10.4399 0.353666V1.5632C10.4399 1.82614 10.6503 2.03649 10.9132 2.03649H12.249C12.5119 2.03649 12.7223 1.82614 12.7223 1.5632V0.353666C12.7223 0.0907244 12.5119 -0.119629 12.249 -0.119629Z" fill="#424750"/>
<path d="M26.164 3.18286H24.8283C24.5653 3.18286 24.355 3.39321 24.355 3.65616V12.1018C24.355 12.3648 24.5653 12.5751 24.8283 12.5751H26.164C26.427 12.5751 26.6373 12.3648 26.6373 12.1018V3.65616C26.6373 3.39321 26.427 3.18286 26.164 3.18286Z" fill="#424750"/>
<path d="M26.164 -0.119629H24.8283C24.5653 -0.119629 24.355 0.0907244 24.355 0.353666V1.5632C24.355 1.82614 24.5653 2.03649 24.8283 2.03649H26.164C26.427 2.03649 26.6373 1.82614 26.6373 1.5632V0.353666C26.6373 0.0907244 26.427 -0.119629 26.164 -0.119629Z" fill="#424750"/>
<path d="M47.3781 12.5752H45.4849C45.3376 12.5752 45.2009 12.512 45.1168 12.3964L42.9081 9.64073L40.6993 12.3964C40.6047 12.512 40.4785 12.5752 40.3312 12.5752H38.4486C38.1541 12.5752 37.9963 12.2386 38.1751 12.0072L41.4987 7.87376L38.1751 3.74032C37.9858 3.50893 38.1541 3.17236 38.4486 3.17236H40.3418C40.489 3.17236 40.6152 3.23547 40.7099 3.35116L42.9186 6.06472L45.1273 3.35116C45.222 3.23547 45.3482 3.17236 45.4954 3.17236H47.3886C47.6831 3.17236 47.8408 3.50893 47.662 3.74032L44.3385 7.87376L47.662 12.0072C47.8303 12.2386 47.6726 12.5752 47.3781 12.5752Z" fill="#424750"/>
<path d="M8.87284 -0.119629H7.41088C7.14794 -0.119629 6.93759 0.0907244 6.93759 0.353666V3.18292H3.41417C1.51047 3.18292 -0.0461426 4.72901 -0.0461426 6.64323V9.1254C-0.0461426 11.0396 1.49996 12.5857 3.41417 12.5857H5.75961C6.03307 12.5857 6.28549 12.4595 6.44326 12.2491L6.92707 11.6181V12.1019C6.92707 12.3648 7.13742 12.5752 7.40036 12.5752H8.86232C9.12526 12.5752 9.33562 12.3648 9.33562 12.1019V0.353666C9.34613 0.0907244 9.13578 -0.119629 8.87284 -0.119629ZM6.92707 10.1666H3.46676C2.85674 10.1666 2.35188 9.67232 2.35188 9.05178V6.70634C2.35188 6.09631 2.84622 5.59146 3.46676 5.59146H6.92707V10.1666Z" fill="#424750"/>
<path d="M22.7456 3.18288H21.2837C21.0207 3.18288 20.8104 3.39324 20.8104 3.65618V4.1505L20.3371 3.51944C20.1688 3.29857 19.9164 3.17236 19.6429 3.17236H17.287C15.3728 3.17236 13.8267 4.71846 13.8267 6.63268V9.11484C13.8267 11.0185 15.3728 12.5752 17.287 12.5752H20.8104V12.7329C20.8104 13.3429 20.3161 13.8478 19.6955 13.8478H16.4876C16.2037 13.8478 16.0354 14.1738 16.2142 14.4052L17.2554 15.783C17.4237 16.0039 17.6761 16.1301 17.9496 16.1301H19.7586C21.6728 16.1301 23.2189 14.584 23.2189 12.6698V3.64566C23.2189 3.39323 23.0086 3.18288 22.7456 3.18288ZM20.8104 10.2928H17.3501C16.7401 10.2928 16.2352 9.7985 16.2352 9.17795V6.7063C16.2352 6.09628 16.7295 5.59143 17.3501 5.59143H20.8104V10.2928Z" fill="#424750"/>
<path d="M54.5933 3.18286H52.2374C51.9639 3.18286 51.7115 3.30907 51.5432 3.52994L51.0699 4.161V3.66667C51.0699 3.40373 50.8596 3.19338 50.5966 3.19338H49.1347C48.8717 3.19338 48.6614 3.40373 48.6614 3.66667V7.22164V15.6673C48.6614 15.9303 48.8822 16.1406 49.1662 16.1406H50.5756C50.849 16.1406 51.0804 15.9303 51.0804 15.6673V12.5856H54.6039C56.5181 12.5856 58.0642 11.0396 58.0642 9.12534V6.64317C58.0537 4.72895 56.497 3.18286 54.5933 3.18286ZM55.6346 9.17793C55.6346 9.78795 55.1403 10.2928 54.5197 10.2928H51.0594V7.21113V5.60192H54.5197C55.1297 5.60192 55.6346 6.09625 55.6346 6.71679V9.17793Z" fill="#424750"/>
<path d="M64.9742 3.64566V5.12865C64.9742 5.38108 64.7639 5.59143 64.5115 5.59143H62.2081C61.861 5.59143 61.5665 5.87541 61.5665 6.23301V12.2596C61.5665 12.5226 61.3457 12.7329 61.0617 12.7329H59.6523C59.3789 12.7329 59.1475 12.5226 59.1475 12.2596V3.81394C59.1475 3.551 59.3683 3.34065 59.6523 3.34065H61.0617C61.3351 3.34065 61.5665 3.551 61.5665 3.81394V4.15051L62.0398 3.51945C62.2081 3.29857 62.4605 3.17236 62.734 3.17236C62.734 3.17236 63.7752 3.17236 64.501 3.17236C64.7639 3.18288 64.9742 3.39323 64.9742 3.64566Z" fill="#424750"/>
<path d="M35.8192 10.2718H30.981C30.5183 10.2718 30.1501 9.90367 30.1501 9.4409V8.39965L30.634 9.02019C30.7812 9.20951 31.0126 9.33572 31.2545 9.34624H34.0312C35.7771 9.34624 37.1865 7.8948 37.1128 6.13835V6.1068C37.0392 4.69743 36.0085 3.57203 34.6833 3.2565C34.4414 3.1934 34.1889 3.17236 33.9365 3.17236H30.7917C30.5709 3.17236 30.35 3.1934 30.1396 3.24599C28.7934 3.551 27.7942 4.75002 27.7942 6.18042V9.4409C27.7942 11.1973 29.2141 12.6277 30.981 12.6277H35.8192C36.1137 12.6277 36.345 12.3858 36.345 12.0913V10.7977C36.345 10.5137 36.1137 10.2718 35.8192 10.2718ZM30.1501 6.18042C30.1501 5.82282 30.4446 5.52832 30.8022 5.52832H34.0417C34.3467 5.52832 34.5991 5.70712 34.7148 5.97007C34.7569 6.06473 34.7779 6.15938 34.7779 6.27508C34.7779 6.68526 34.4519 7.01131 34.0417 7.01131H30.1501V6.18042Z" fill="#424750"/>
<path d="M74.1246 10.2718H69.2865C68.8237 10.2718 68.4556 9.90367 68.4556 9.4409V8.39965L68.9394 9.02019C69.0866 9.20951 69.318 9.33572 69.5599 9.34624H72.3366C74.0825 9.34624 75.4919 7.8948 75.4183 6.13835V6.1068C75.3447 4.69743 74.3139 3.57203 72.9887 3.2565C72.7468 3.1934 72.4944 3.17236 72.2419 3.17236H69.0971C68.8763 3.17236 68.6554 3.1934 68.4451 3.24599C67.0988 3.551 66.0996 4.75002 66.0996 6.18042V9.4409C66.0996 11.1973 67.5195 12.6277 69.2865 12.6277H74.1246C74.4191 12.6277 74.6505 12.3858 74.6505 12.0913V10.7977C74.661 10.5137 74.4191 10.2718 74.1246 10.2718ZM68.4556 6.18042C68.4556 5.82282 68.7501 5.52832 69.1077 5.52832H72.3471C72.6521 5.52832 72.9045 5.70712 73.0202 5.97007C73.0623 6.06473 73.0833 6.15938 73.0833 6.27508C73.0833 6.68526 72.7573 7.01131 72.3471 7.01131H68.4556V6.18042Z" fill="#424750"/>
<path d="M85.8623 9.90353C85.8623 11.3339 84.6527 12.5014 83.1592 12.5014H77.5744C77.2799 12.5014 77.0485 12.2595 77.0485 11.9755V10.6818C77.0485 10.3873 77.2904 10.156 77.5744 10.156H83.1592C83.3591 10.156 83.5063 10.0192 83.5063 9.90353C83.5063 9.79835 83.4117 9.70369 83.2749 9.67214L78.563 8.35743C77.3956 8.05242 76.5752 7.02169 76.5752 5.84371C76.5752 4.41331 77.7847 3.24585 79.2782 3.24585H84.4634C84.7579 3.24585 84.9893 3.48776 84.9893 3.77173V5.0654C84.9893 5.3599 84.7474 5.59129 84.4634 5.59129H79.2782C79.0784 5.59129 78.9311 5.72802 78.9311 5.84371C78.9311 5.94889 79.0258 6.04355 79.1625 6.0751L83.8744 7.38981C85.0419 7.70534 85.8623 8.73607 85.8623 9.90353Z" fill="#424750"/>
<path d="M96.3062 9.90353C96.3062 11.3339 95.0966 12.5014 93.6031 12.5014H88.0182C87.7237 12.5014 87.4923 12.2595 87.4923 11.9755V10.6818C87.4923 10.3873 87.7342 10.156 88.0182 10.156H93.6031C93.8029 10.156 93.9502 10.0192 93.9502 9.90353C93.9502 9.79835 93.8555 9.70369 93.7188 9.67214L89.0069 8.35743C87.8394 8.05242 87.019 7.02169 87.019 5.84371C87.019 4.41331 88.2286 3.24585 89.7221 3.24585H94.9073C95.2018 3.24585 95.4332 3.48776 95.4332 3.77173V5.0654C95.4332 5.3599 95.1913 5.59129 94.9073 5.59129H89.7221C89.5223 5.59129 89.375 5.72802 89.375 5.84371C89.375 5.94889 89.4697 6.04355 89.6064 6.0751L94.3183 7.40033C95.4963 7.70534 96.3062 8.73607 96.3062 9.90353Z" fill="#424750"/>
</g>
</g>
<defs>
<clipPath id="clip0">
<rect width="96.5333" height="16" fill="white"/>
</clipPath>
<clipPath id="clip1">
<rect width="96.5333" height="25.6" fill="white" transform="translate(-0.16626 -4.80005)"/>
</clipPath>
</defs>
</svg>
