<svg width="85" height="20" viewBox="0 0 85 20" fill="none" xmlns="http://www.w3.org/2000/svg">
<g clip-path="url(#clip0)">
<path fill-rule="evenodd" clip-rule="evenodd" d="M8.58102 12.872H4.08601C3.4096 12.872 2.86106 12.3234 2.86106 11.6469L2.86106 8.3758C2.86106 7.69949 3.40854 7.15191 4.08496 7.15085H8.58102V12.872ZM10.9136 -3.8147e-06H9.10944C8.81773 -3.8147e-06 8.58099 0.236742 8.58099 0.528446V4.29112H3.94224C3.6759 4.29112 3.41591 4.31755 3.16436 4.36712C1.34861 4.80584 0 6.44181 0 8.39085L0 11.5932C0 13.8792 1.85381 15.733 4.13988 15.733H6.91848C7.03157 15.733 7.14043 15.6971 7.23027 15.6306C7.25246 15.6157 7.2736 15.5978 7.29262 15.5787L7.29368 15.5778L8.58204 14.284V15.2046C8.58204 15.4952 8.81985 15.733 9.11049 15.733H10.8713C11.1334 15.733 11.3532 15.565 11.4336 15.3325C11.4399 15.304 11.442 15.2743 11.442 15.2437L11.442 0.528446C11.442 0.236742 11.2053 -3.8147e-06 10.9136 -3.8147e-06ZM25.7443 12.8735L21.2472 12.8735C20.5708 12.8724 20.0233 12.325 20.0233 11.6486V8.37744C20.0233 7.70103 20.5719 7.15239 21.2483 7.15239H25.7443V12.8735ZM28.0335 4.29972H26.2727C25.981 4.29972 25.7443 4.53636 25.7443 4.82817V5.72125L25.7358 5.71058L24.4792 4.45403C24.3946 4.36948 24.2266 4.29972 24.1061 4.29972H21.3021C19.016 4.29972 17.1633 6.15247 17.1633 8.43855V11.642C17.1633 13.5909 18.5119 15.227 20.3277 15.6656C20.5792 15.7153 20.8392 15.7417 21.1055 15.7417L25.7443 15.7417V15.8104C25.7443 16.0366 25.6988 16.2627 25.59 16.4614C25.3575 16.8873 24.9051 17.176 24.3851 17.176H20.8625C20.1205 17.176 19.7432 18.0712 20.2653 18.5985C20.6733 19.0139 21.0886 19.4376 21.3951 19.7505C21.5547 19.9112 21.7672 20 21.9923 20H24.3946C24.8998 20 25.3828 19.9123 25.8288 19.7505C27.4618 19.1587 28.6043 17.5818 28.6043 15.73V4.78907C28.6043 4.75842 28.6022 4.72872 28.5958 4.70029C28.5155 4.46777 28.2957 4.29972 28.0335 4.29972ZM13.4007 4.29152L15.2048 4.29152C15.4967 4.29152 15.7332 4.52805 15.7332 4.81997L15.7332 15.2051C15.7332 15.4969 15.4967 15.7335 15.2048 15.7335H13.4007C13.1087 15.7335 12.8722 15.4969 12.8722 15.2051L12.8722 4.81997C12.8722 4.52805 13.1087 4.29152 13.4007 4.29152ZM15.2048 0.000818253H13.4007C13.1087 0.000818253 12.8722 0.237354 12.8722 0.52927V2.33287C12.8722 2.62479 13.1087 2.86132 13.4007 2.86132H15.2048C15.4967 2.86132 15.7332 2.62479 15.7332 2.33287V0.52927C15.7332 0.237354 15.4967 0.000818253 15.2048 0.000818253ZM30.563 4.29152H32.3671C32.659 4.29152 32.8956 4.52805 32.8956 4.81997V15.2051C32.8956 15.4969 32.659 15.7335 32.3671 15.7335H30.563C30.271 15.7335 30.0345 15.4969 30.0345 15.2051V4.81997C30.0345 4.52805 30.271 4.29152 30.563 4.29152ZM52.0163 8.58192C51.7245 8.58192 51.4879 8.81846 51.4879 9.11037V10.9145C51.4879 11.2064 51.7245 11.443 52.0163 11.443H58.1109C58.4027 11.443 58.6393 11.2064 58.6393 10.9145V9.11037C58.6393 8.81846 58.4027 8.58192 58.1109 8.58192H52.0163ZM30.563 0.000818253H32.3671C32.659 0.000818253 32.8956 0.237354 32.8956 0.52927V2.33287C32.8956 2.62479 32.659 2.86132 32.3671 2.86132H30.563C30.271 2.86132 30.0345 2.62479 30.0345 2.33287V0.52927C30.0345 0.237354 30.271 0.000818253 30.563 0.000818253ZM41.6277 4.29102H38.8491C38.736 4.29102 38.6272 4.32695 38.5374 4.39354C38.5152 4.40833 38.494 4.4263 38.475 4.44533L38.4739 4.44638L37.1818 5.74003L37.1856 4.81947C37.1856 4.52882 36.9478 4.29102 36.6571 4.29102H34.8963C34.6342 4.29102 34.4144 4.45907 34.3341 4.69158C34.3277 4.72012 34.3256 4.74971 34.3256 4.78036V15.3156C34.3256 15.5461 34.5126 15.733 34.7431 15.733L36.7643 15.733C36.9949 15.733 37.1818 15.5461 37.1818 15.3156V7.15195H41.6816C42.3582 7.15195 42.9066 7.70048 42.9066 8.377V15.3156C42.9066 15.5461 43.0936 15.733 43.3241 15.733H45.3385C45.5691 15.733 45.756 15.5461 45.756 15.3156C45.7634 15.2796 45.7676 15.2426 45.7676 15.2046V8.4309C45.7676 6.14451 43.9141 4.29102 41.6277 4.29102ZM77.7617 4.29102H83.8537C84.1455 4.29102 84.3822 4.52755 84.3822 4.81947V6.61726C84.3822 6.90907 84.1455 7.14571 83.8537 7.14571H80.0933V15.3156C80.0933 15.5461 79.9063 15.733 79.6758 15.733H77.655C77.4244 15.733 77.2375 15.5461 77.2375 15.3156V7.15195L70.0255 7.15195C69.8643 7.15195 69.7119 7.22572 69.6117 7.35191L67.4999 10.0117L71.3249 14.8298C71.5893 15.1629 71.4018 15.7325 71.0278 15.732L68.6684 15.7293C68.5573 15.7292 68.4508 15.6735 68.3722 15.5746L65.7279 12.2437L63.0833 15.5745C63.0051 15.6739 62.8983 15.7288 62.7873 15.7298L60.4273 15.732C60.42 15.732 60.4131 15.7311 60.4061 15.7302C60.4021 15.7297 60.3981 15.7292 60.3941 15.7288H51.2964C49.0336 15.7288 47.1998 13.8951 47.1998 11.6323V8.3918C47.1998 8.01237 47.2516 7.64351 47.3489 7.29473C47.8298 5.56564 49.4172 4.29419 51.2974 4.29419H58.1102C58.4019 4.29419 58.6387 4.53094 58.6387 4.82264V6.61937C58.6387 6.91108 58.4019 7.14782 58.1102 7.14782H51.2974C50.6105 7.14782 50.0535 7.70481 50.0535 8.3918V11.6312C50.0535 12.315 50.6136 12.8752 51.2974 12.8752H61.6819L63.9556 10.0114L60.1307 5.1934C59.8664 4.86058 60.0536 4.29134 60.4273 4.29134H62.7846C62.8959 4.29134 63.0026 4.34693 63.0813 4.44617L65.7278 7.77954L68.3741 4.44638C68.4534 4.34703 68.5601 4.29102 68.6711 4.29102L75.5697 4.29102C75.6828 4.29102 75.7917 4.32695 75.8815 4.39354C75.9037 4.40833 75.9249 4.4263 75.9439 4.44533L75.9449 4.44638L77.2375 5.74003L77.2333 4.81947C77.2333 4.52882 77.4711 4.29102 77.7617 4.29102Z" fill="#424750"/>
</g>
<defs>
<clipPath id="clip0">
<rect width="84.3822" height="20" fill="white"/>
</clipPath>
</defs>
</svg>
