<svg width="122" height="16" viewBox="0 0 122 16" fill="none" xmlns="http://www.w3.org/2000/svg">
<path fill-rule="evenodd" clip-rule="evenodd" d="M40.1951 10.1463H43.7073V5.46341H40.1951C39.5891 5.46341 39.0244 6.02953 39.0244 6.63415V8.97561C39.0244 9.58031 39.5891 10.1463 40.1951 10.1463ZM54.2439 10.1463H57.7561V5.46341H54.2439C53.6379 5.46341 53.0732 6.02953 53.0732 6.63415V8.97561C53.0732 9.58031 53.6379 10.1463 54.2439 10.1463ZM46.0488 3.70732V11.9024C46.0488 12.1607 45.7225 12.4878 45.4634 12.4878L44.2929 12.5001C44.0336 12.5001 43.7073 12.1608 43.7073 11.9024V11.5122L43.1761 12.1501C43.0143 12.3701 42.615 12.4878 42.3415 12.4878H40.1951C38.3118 12.4878 36.6829 10.8545 36.6829 8.97561V6.63415C36.6829 4.75525 38.3118 3.12195 40.1951 3.12195H45.4634C45.7221 3.12195 46.0488 3.44932 46.0488 3.70732ZM60.0976 3.70732V11.9024C60.0976 12.1607 59.7712 12.4878 59.5122 12.4878L58.3417 12.5001C58.0824 12.5001 57.7561 12.1608 57.7561 11.9024V11.5122L57.2249 12.1501C57.0631 12.3701 56.6638 12.4878 56.3902 12.4878H54.2439C52.3606 12.4878 50.7317 10.8545 50.7317 8.97561V6.63415C50.7317 4.75525 52.3606 3.12195 54.2439 3.12195H59.5122C59.7709 3.12195 60.0976 3.44932 60.0976 3.70732ZM21.0732 5.46341H17.561C16.9549 5.46341 16.3902 6.02953 16.3902 6.63415V8.97561C16.3902 9.5804 16.9549 10.1463 17.561 10.1463H21.0732V5.46341ZM23.4146 3.70732V12.4878V12.6829C23.4146 14.5618 21.7857 16 19.9024 16H18.0927C17.8234 16 17.5696 15.874 17.4072 15.6596L16.377 14.2995C16.2059 14.0737 16.3016 13.6585 16.5854 13.6585H19.9024C20.5085 13.6585 21.0732 13.2875 21.0732 12.6829V12.4878H17.561C15.6778 12.4878 14.0488 10.8545 14.0488 8.97561V6.63415C14.0488 4.75533 15.6778 3.12195 17.561 3.12195H19.7073C19.9759 3.12195 20.2686 3.33802 20.4583 3.5122L21.0732 4.09756V3.70732C21.0732 3.44941 21.4001 3.12195 21.6585 3.12195H22.8293C23.0882 3.12195 23.4146 3.44888 23.4146 3.70732ZM2.34146 8.97561C2.34146 9.58023 2.90616 10.1463 3.5122 10.1463H7.02439V5.46341H3.5122C2.90616 5.46341 2.34146 6.02953 2.34146 6.63415V8.97561ZM8.78049 0C9.03962 0 9.36585 0.327014 9.36585 0.585366V11.9024C9.36585 12.1607 9.03962 12.4878 8.78049 12.4878H7.60976C7.35071 12.4878 7.02439 12.1609 7.02439 11.9024V11.5122L6.41058 12.169C6.24428 12.3537 5.9236 12.4878 5.65854 12.4878H3.5122C1.6289 12.4878 0 10.8545 0 8.97561V6.65202C0 4.77312 1.6289 3.12195 3.5122 3.12195H7.02439V0.585366C7.02439 0.327014 7.35071 0 7.60976 0H8.78049ZM32.9756 7.80488L36.2343 3.68004C36.4156 3.45523 36.2553 3.12114 35.9662 3.12114H34.1023C33.9614 3.12114 33.828 3.18443 33.7388 3.29344L30.439 7.41463V0.585366C30.439 0.327014 30.1126 0 29.8537 0H28.6829C28.4239 0 28.0976 0.327014 28.0976 0.585366V11.9024C28.0976 12.1608 28.4239 12.4878 28.6829 12.4878H29.8537C30.1127 12.4878 30.439 12.1608 30.439 11.9024V8.19512L33.7406 12.3254C33.8296 12.4358 33.9639 12.5001 34.106 12.5001H35.9679C36.257 12.5001 36.4175 12.1659 36.2361 11.9411L32.9756 7.80488ZM25.1707 0C24.9119 0 24.5854 0.327014 24.5854 0.585366V1.7561C24.5854 2.01445 24.9119 2.34146 25.1707 2.34146H26.3415C26.6004 2.34146 26.9268 2.01445 26.9268 1.7561V0.585366C26.9268 0.327014 26.6004 0 26.3415 0H25.1707ZM25.1707 3.12195C24.9119 3.12195 24.5854 3.44905 24.5854 3.70732V11.9024C24.5854 12.1607 25.0036 12.5 25.2625 12.5L26.3415 12.4878C26.6004 12.4878 26.9268 12.1607 26.9268 11.9024V3.70732C26.9268 3.44905 26.6004 3.12195 26.3415 3.12195H25.1707ZM11.122 0C10.863 0 10.5366 0.327014 10.5366 0.585366V1.7561C10.5366 2.01445 10.863 2.34146 11.122 2.34146H12.2927C12.5516 2.34146 12.878 2.01445 12.878 1.7561V0.585366C12.878 0.327014 12.5516 0 12.2927 0H11.122ZM11.122 3.12195C10.863 3.12195 10.5366 3.44905 10.5366 3.70732V11.9024C10.5366 12.1607 10.863 12.4878 11.122 12.4878H12.2927C12.5516 12.4878 12.878 12.1607 12.878 11.9024V3.70732C12.878 3.44905 12.5516 3.12195 12.2927 3.12195H11.122ZM49.561 0.585366V11.9024C49.561 12.1607 49.2347 12.4878 48.9756 12.4878H47.8049C47.5458 12.4878 47.2195 12.1607 47.2195 11.9024V0.585366C47.2195 0.327014 47.5458 0 47.8049 0H48.9756C49.2347 0 49.561 0.327014 49.561 0.585366Z" fill="#424750"/>
<g clip-path="url(#clip0)">
<path fill-rule="evenodd" clip-rule="evenodd" d="M68.1844 9.27116L66.8926 5.44446L65.6008 9.27116H68.1844ZM68.7633 10.9972H65.0091L64.4439 12.683H62.439L65.7357 3.31738H68.0367L71.3469 12.683H69.3285L68.7633 10.9972Z" fill="#424750"/>
<path fill-rule="evenodd" clip-rule="evenodd" d="M74.1179 5.08315V7.30415H77.778V9.07031H74.1179V12.6828H72.261V3.31714H77.8855V5.08315H74.1179Z" fill="#424750"/>
<path fill-rule="evenodd" clip-rule="evenodd" d="M81.1013 5.08315V7.30415H84.7614V9.07031H81.1013V12.6828H79.2444V3.31714H84.8689V5.08315H81.1013Z" fill="#424750"/>
<path fill-rule="evenodd" clip-rule="evenodd" d="M86.2275 12.6828H88.0845V3.31714H86.2275V12.6828Z" fill="#424750"/>
<path fill-rule="evenodd" clip-rule="evenodd" d="M95.2833 10.9168V12.6828H89.8335V3.31714H91.6904V10.9168H95.2833Z" fill="#424750"/>
<path fill-rule="evenodd" clip-rule="evenodd" d="M96.3318 12.6828H98.1887V3.31714H96.3318V12.6828Z" fill="#424750"/>
<path fill-rule="evenodd" clip-rule="evenodd" d="M104.849 9.27106L103.557 5.44436L102.265 9.27106H104.849ZM105.428 10.9969H101.674L101.109 12.6828H99.1038L102.4 3.31714H104.701L108.012 12.6828H105.993L105.428 10.9969Z" fill="#424750"/>
<path fill-rule="evenodd" clip-rule="evenodd" d="M114.47 5.08315H111.927V12.6828H110.07V5.08315H107.54V3.31714H114.47V5.08315Z" fill="#424750"/>
<path fill-rule="evenodd" clip-rule="evenodd" d="M121.332 10.9168V12.6828H115.506V3.31714H121.265V5.08315H117.363V7.07688H120.929V8.81622H117.363V10.9168H121.332Z" fill="#424750"/>
</g>
<defs>
<clipPath id="clip0">
<rect width="58.8931" height="9.36585" fill="white" transform="translate(62.439 3.31714)"/>
</clipPath>
</defs>
</svg>
