<svg width="91" height="17" viewBox="0 0 91 17" fill="none" xmlns="http://www.w3.org/2000/svg">
<g clip-path="url(#clip0)">
<path fill-rule="evenodd" clip-rule="evenodd" d="M40.1951 10.4056H43.7073V5.72269H40.1951C39.5891 5.72269 39.0244 6.28881 39.0244 6.89342V9.23489C39.0244 9.83959 39.5891 10.4056 40.1951 10.4056ZM54.2439 10.4056H57.7561V5.72269H54.2439C53.6379 5.72269 53.0732 6.28881 53.0732 6.89342V9.23489C53.0732 9.83959 53.6379 10.4056 54.2439 10.4056ZM46.0488 3.96659V12.1617C46.0488 12.42 45.7225 12.7471 45.4634 12.7471L44.2929 12.7594C44.0336 12.7594 43.7073 12.4201 43.7073 12.1617V11.7715L43.1761 12.4093C43.0143 12.6294 42.615 12.7471 42.3415 12.7471H40.1951C38.3118 12.7471 36.6829 11.1138 36.6829 9.23489V6.89342C36.6829 5.01452 38.3118 3.38123 40.1951 3.38123H45.4634C45.7221 3.38123 46.0488 3.7086 46.0488 3.96659ZM60.0976 3.96659V12.1617C60.0976 12.42 59.7712 12.7471 59.5122 12.7471L58.3417 12.7594C58.0824 12.7594 57.7561 12.4201 57.7561 12.1617V11.7715L57.2249 12.4093C57.0631 12.6294 56.6638 12.7471 56.3902 12.7471H54.2439C52.3606 12.7471 50.7317 11.1138 50.7317 9.23489V6.89342C50.7317 5.01452 52.3606 3.38123 54.2439 3.38123H59.5122C59.7709 3.38123 60.0976 3.7086 60.0976 3.96659ZM21.0732 5.72269H17.561C16.9549 5.72269 16.3902 6.28881 16.3902 6.89342V9.23489C16.3902 9.83968 16.9549 10.4056 17.561 10.4056H21.0732V5.72269ZM23.4146 3.96659V12.7471V12.9422C23.4146 14.8211 21.7857 16.2593 19.9024 16.2593H18.0927C17.8234 16.2593 17.5696 16.1333 17.4072 15.9189L16.377 14.5588C16.2059 14.333 16.3016 13.9178 16.5854 13.9178H19.9024C20.5085 13.9178 21.0732 13.5468 21.0732 12.9422V12.7471H17.561C15.6778 12.7471 14.0488 11.1138 14.0488 9.23489V6.89342C14.0488 5.01461 15.6778 3.38123 17.561 3.38123H19.7073C19.9759 3.38123 20.2686 3.5973 20.4583 3.77147L21.0732 4.35684V3.96659C21.0732 3.70868 21.4001 3.38123 21.6585 3.38123H22.8293C23.0882 3.38123 23.4146 3.70815 23.4146 3.96659ZM2.34146 9.23489C2.34146 9.8395 2.90616 10.4056 3.5122 10.4056H7.02439V5.72269H3.5122C2.90616 5.72269 2.34146 6.28881 2.34146 6.89342V9.23489ZM8.78049 0.259277C9.03962 0.259277 9.36585 0.586291 9.36585 0.844643V12.1617C9.36585 12.42 9.03962 12.7471 8.78049 12.7471H7.60976C7.35071 12.7471 7.02439 12.4202 7.02439 12.1617V11.7715L6.41058 12.4283C6.24428 12.613 5.9236 12.7471 5.65854 12.7471H3.51219C1.6289 12.7471 0 11.1138 0 9.23489V6.91129C0 5.03239 1.6289 3.38123 3.51219 3.38123H7.02439V0.844643C7.02439 0.586291 7.35071 0.259277 7.60976 0.259277H8.78049ZM32.9756 8.06416L36.2343 3.93931C36.4156 3.7145 36.2553 3.38042 35.9662 3.38042H34.1023C33.9614 3.38042 33.828 3.44371 33.7388 3.55271L30.439 7.67391V0.844643C30.439 0.586291 30.1126 0.259277 29.8537 0.259277H28.6829C28.4239 0.259277 28.0976 0.586291 28.0976 0.844643V12.1617C28.0976 12.4201 28.4239 12.7471 28.6829 12.7471H29.8537C30.1127 12.7471 30.439 12.4201 30.439 12.1617V8.4544L33.7406 12.5847C33.8296 12.695 33.9639 12.7594 34.106 12.7594H35.9679C36.257 12.7594 36.4175 12.4251 36.2361 12.2004L32.9756 8.06416ZM25.1707 0.259277C24.9119 0.259277 24.5854 0.586291 24.5854 0.844643V2.01537C24.5854 2.27373 24.9119 2.60074 25.1707 2.60074H26.3415C26.6004 2.60074 26.9268 2.27373 26.9268 2.01537V0.844643C26.9268 0.586291 26.6004 0.259277 26.3415 0.259277H25.1707ZM25.1707 3.38123C24.9119 3.38123 24.5854 3.70833 24.5854 3.96659V12.1617C24.5854 12.42 25.0036 12.7593 25.2625 12.7593L26.3415 12.7471C26.6004 12.7471 26.9268 12.42 26.9268 12.1617V3.96659C26.9268 3.70833 26.6004 3.38123 26.3415 3.38123H25.1707ZM11.122 0.259277C10.863 0.259277 10.5366 0.586291 10.5366 0.844643V2.01537C10.5366 2.27373 10.863 2.60074 11.122 2.60074H12.2927C12.5516 2.60074 12.878 2.27373 12.878 2.01537V0.844643C12.878 0.586291 12.5516 0.259277 12.2927 0.259277H11.122ZM11.122 3.38123C10.863 3.38123 10.5366 3.70833 10.5366 3.96659V12.1617C10.5366 12.42 10.863 12.7471 11.122 12.7471H12.2927C12.5516 12.7471 12.878 12.42 12.878 12.1617V3.96659C12.878 3.70833 12.5516 3.38123 12.2927 3.38123H11.122ZM49.561 0.844643V12.1617C49.561 12.42 49.2347 12.7471 48.9756 12.7471H47.8049C47.5458 12.7471 47.2195 12.42 47.2195 12.1617V0.844643C47.2195 0.586291 47.5458 0.259277 47.8049 0.259277H48.9756C49.2347 0.259277 49.561 0.586291 49.561 0.844643Z" fill="#424750"/>
<path fill-rule="evenodd" clip-rule="evenodd" d="M63.6969 0.934368C63.5721 0.758476 63.353 0.649536 63.1261 0.649536C63.0625 0.649536 62.9996 0.658047 62.9394 0.674501C62.6438 0.748263 62.439 0.99054 62.439 1.26459V12.1349C62.439 12.4725 62.7454 12.7471 63.1215 12.7471C63.4983 12.7471 63.8041 12.4725 63.8041 12.1349V3.66808V3.36055L63.9823 3.61077L65.0705 5.13876C65.1965 5.31409 65.4115 5.41906 65.6453 5.41906C65.7696 5.41906 65.8927 5.38842 66.0011 5.33054C66.1622 5.24203 66.2757 5.09678 66.3137 4.93166C66.3494 4.77449 66.3165 4.61335 66.2201 4.47775L63.6969 0.934368Z" fill="#424750"/>
<path fill-rule="evenodd" clip-rule="evenodd" d="M70.694 0.675636C70.6305 0.658047 70.5669 0.649536 70.5028 0.649536C70.2747 0.649536 70.0557 0.758476 69.9314 0.933801L65.2346 7.5292C65.1387 7.6648 65.1052 7.82594 65.1415 7.98311C65.1789 8.14822 65.293 8.29348 65.4536 8.38142C65.5625 8.44043 65.6868 8.47221 65.8122 8.47221C66.0454 8.47221 66.2598 8.3661 66.3852 8.18964L69.6455 3.6102L69.8236 3.35998V3.66751V12.1349C69.8236 12.4725 70.13 12.7471 70.5062 12.7471C70.883 12.7471 71.1888 12.4725 71.1888 12.1349V1.26402C71.1888 0.991108 70.9857 0.74883 70.694 0.675636Z" fill="#424750"/>
<path fill-rule="evenodd" clip-rule="evenodd" d="M78.0764 1.04892C77.9806 0.810078 77.7215 0.649536 77.4314 0.649536C77.3587 0.649536 77.2855 0.659676 77.2145 0.679955C77.0371 0.735159 76.8906 0.857396 76.8157 1.01569C76.7481 1.15764 76.743 1.31536 76.801 1.46013L79.0402 7.06109L79.0931 7.19459H78.9495H75.7989H75.6575L75.7076 7.06278L76.9469 3.78884C77.0021 3.64351 76.9937 3.48635 76.9238 3.34608C76.8455 3.18948 76.6963 3.0695 76.5143 3.01711C76.4445 2.99683 76.3724 2.98613 76.3002 2.98613C76.0118 2.98613 75.7561 3.15287 75.6631 3.40072L72.445 11.9461C72.3898 12.0914 72.3982 12.2491 72.4686 12.3894C72.5475 12.546 72.6957 12.6654 72.8753 12.7167C72.9429 12.737 73.0134 12.7471 73.0872 12.7471C73.3789 12.7471 73.6364 12.5809 73.7288 12.3336L75.1781 8.4733L75.2018 8.41021H75.2694H79.5133H79.5793L79.604 8.47161L81.1531 12.3455C81.2489 12.586 81.5052 12.7471 81.7908 12.7471C81.8623 12.7471 81.9356 12.7364 82.015 12.7144C82.1924 12.6592 82.3389 12.537 82.4138 12.3793C82.4814 12.2367 82.4865 12.0785 82.4285 11.9348L78.0764 1.04892Z" fill="#424750"/>
<path fill-rule="evenodd" clip-rule="evenodd" d="M89.74 2.72892C89.8691 2.86211 90.0554 2.93869 90.2512 2.93869C90.4072 2.93869 90.5604 2.88874 90.6821 2.79884C90.8246 2.69451 90.9105 2.5469 90.9245 2.38319C90.938 2.22392 90.8808 2.06909 90.7629 1.94811C89.5156 0.66452 87.4489 0.649536 87.3614 0.649536C84.0996 0.649536 83.162 2.85212 83.1216 4.01639L83.1221 7.46538C83.1221 7.79558 83.4246 8.06417 83.7966 8.06417C84.1692 8.06417 84.4716 7.79558 84.4716 7.46538L84.4711 4.0397C84.4817 3.81106 84.6501 1.84711 87.3603 1.84711C87.3754 1.84711 88.9045 1.87097 89.74 2.72892Z" fill="#424750"/>
<path fill-rule="evenodd" clip-rule="evenodd" d="M83.2784 9.04545C83.1724 9.16007 83.1168 9.30589 83.1219 9.45681C83.1623 10.6393 84.1005 12.7471 87.3617 12.7471C87.4487 12.7471 89.5153 12.7324 90.7626 11.4234C90.8681 11.311 90.9265 11.1686 90.9265 11.0234V7.89591C90.9265 7.55831 90.6235 7.28369 90.2509 7.28369H86.2052C85.8332 7.28369 85.5302 7.55831 85.5302 7.89591C85.5302 8.23351 85.8332 8.50813 86.2052 8.50813H89.4788H89.5759V8.60629V10.7306V10.7777L89.5394 10.8072C88.6809 11.5034 87.3746 11.5227 87.3617 11.5227C84.6498 11.5227 84.4815 9.64349 84.4714 9.41426C84.4562 9.09084 84.1426 8.827 83.7722 8.827C83.582 8.83325 83.4013 8.91268 83.2784 9.04545Z" fill="#424750"/>
</g>
<defs>
<clipPath id="clip0">
<rect width="90.9268" height="16" fill="white" transform="translate(0 0.259277)"/>
</clipPath>
</defs>
</svg>
