<svg width="64" height="17" viewBox="0 0 64 17" fill="none" xmlns="http://www.w3.org/2000/svg">
<path fill-rule="evenodd" clip-rule="evenodd" d="M8.49816 4.02398H4.24908C1.90238 4.02398 0 5.7095 0 7.78869V8.72987C0 10.8091 1.90238 12.4946 4.24908 12.4946H10.6227V0.259277H8.49816V4.02398ZM8.49817 10.6122H4.24909C3.07574 10.6122 2.12455 9.76946 2.12455 8.72986V7.78869C2.12455 6.74909 3.07574 5.90633 4.24909 5.90633H8.49817V10.6122ZM11.685 4.02397H13.8095V12.4946H11.685V4.02397ZM14.8718 8.72985V7.78868C14.8718 5.70949 16.7742 4.02397 19.1209 4.02397H25.4945V12.4946C25.4945 14.5737 23.5921 16.2593 21.2454 16.2593H19.1209L17.9258 14.3769H21.2454C22.4188 14.3769 23.37 13.5342 23.37 12.4946H19.1209C16.7742 12.4946 14.8718 10.809 14.8718 8.72985ZM19.1209 10.6122H23.37V5.90633H19.1209C17.9475 5.90633 16.9963 6.74909 16.9963 7.78869V8.72986C16.9963 9.76946 17.9475 10.6122 19.1209 10.6122ZM61.6117 4.02397V10.6122H57.3626C56.1892 10.6122 55.2381 9.76945 55.2381 8.72985V4.02397H53.1135V8.72985C53.1135 10.809 55.0159 12.4946 57.3626 12.4946H61.6117C61.6117 13.5342 60.6605 14.3769 59.4871 14.3769H56.1675L57.3626 16.2593H59.4871C61.8338 16.2593 63.7362 14.5737 63.7362 12.4946V4.02397H61.6117ZM41.4285 7.78868V8.72985C41.4285 10.809 43.3309 12.4946 45.6776 12.4946H52.0512V4.02397H45.6776C43.3309 4.02397 41.4285 5.70949 41.4285 7.78868ZM49.9267 10.6122H45.6776C44.5043 10.6122 43.5531 9.76946 43.5531 8.72986V7.78869C43.5531 6.74909 44.5043 5.90633 45.6776 5.90633H49.9267V10.6122ZM29.7435 4.02397H36.1172C38.4639 4.02397 40.3662 5.70949 40.3662 7.78868V8.72985C40.3662 10.809 38.4639 12.4946 36.1172 12.4946H31.8681V16.2593H29.7435V4.02397ZM36.1172 10.6122C37.2905 10.6122 38.2417 9.76946 38.2417 8.72986V7.78869C38.2417 6.74909 37.2905 5.90633 36.1172 5.90633H31.8681V10.6122H36.1172ZM13.8095 0.259277H11.685V2.14163H13.8095V0.259277ZM26.5567 4.02397H28.6813V12.4946H26.5567V4.02397ZM28.6813 0.259277H26.5567V2.14163H28.6813V0.259277Z" fill="#424750"/>
</svg>
