<svg width="54" height="16" viewBox="0 0 54 16" fill="none" xmlns="http://www.w3.org/2000/svg">
<g clip-path="url(#clip0)">
<path d="M51.4488 0.213013H49.8408C49.8009 0.213013 49.761 0.226324 49.7345 0.252946C49.7079 0.279568 49.6946 0.319502 49.6946 0.372746C49.6946 0.41268 49.6946 0.439302 49.7079 0.465925C49.7212 0.492547 49.7212 0.519169 49.7345 0.53248H50.3856V2.28955C50.3856 2.35611 50.3989 2.40935 50.4388 2.43597C50.4654 2.4626 50.5318 2.47591 50.5983 2.47591C50.6381 2.47591 50.6647 2.47591 50.7046 2.4626C50.7312 2.44929 50.7577 2.44929 50.7843 2.44929V0.53248H51.3425C51.4355 0.53248 51.4887 0.479236 51.4887 0.359435C51.4887 0.332813 51.4887 0.29288 51.4754 0.266257C51.4754 0.252946 51.4621 0.226324 51.4488 0.213013Z" fill="#424750"/>
<path d="M53.8809 2.15645C53.8676 2.03665 53.8676 1.91685 53.8543 1.77043C53.841 1.62401 53.8277 1.49089 53.8144 1.33116C53.8012 1.18474 53.7879 1.03831 53.7746 0.905203C53.7613 0.772092 53.748 0.652292 53.7347 0.559114C53.7214 0.452624 53.7081 0.386069 53.7081 0.346135C53.6948 0.292891 53.6683 0.266268 53.6284 0.239646C53.5885 0.213024 53.5221 0.199713 53.4423 0.199713C53.4025 0.199713 53.3626 0.199713 53.3227 0.213024C53.2829 0.226335 53.2563 0.239646 53.2297 0.239646C53.1898 0.319513 53.1633 0.412691 53.1234 0.505869C53.0835 0.599047 53.0437 0.705536 52.9905 0.825337C52.9373 0.931826 52.8975 1.05163 52.8443 1.17143C52.7912 1.29123 52.7513 1.41103 52.6981 1.53083H52.6848C52.645 1.43765 52.6051 1.34447 52.5652 1.25129C52.5254 1.1448 52.4855 1.05163 52.4456 0.945137C52.4058 0.838648 52.3659 0.74547 52.326 0.63898C52.2862 0.532491 52.2463 0.439313 52.2064 0.359446C52.1798 0.306202 52.14 0.266268 52.1001 0.226335C52.047 0.199713 51.9938 0.186401 51.9141 0.186401C51.8476 0.186401 51.7945 0.199713 51.7413 0.213024C51.7014 0.239646 51.6616 0.252957 51.6483 0.279579C51.635 0.412691 51.6217 0.532491 51.6084 0.665603C51.5951 0.798714 51.5951 0.931826 51.5818 1.07825C51.5685 1.22467 51.5685 1.35778 51.5552 1.49089C51.542 1.62401 51.542 1.74381 51.5287 1.86361C51.5287 1.9701 51.5154 2.07658 51.5154 2.15645C51.5154 2.23632 51.5154 2.28956 51.5154 2.3295C51.5154 2.43599 51.5818 2.48923 51.7147 2.48923C51.7546 2.48923 51.7812 2.48923 51.8077 2.47592C51.8343 2.46261 51.8609 2.46261 51.8875 2.46261C51.9008 2.28956 51.9008 2.14314 51.9141 1.99672C51.9273 1.85029 51.9274 1.70387 51.9406 1.57076C51.9539 1.43765 51.9539 1.29123 51.9539 1.1448C51.9672 0.998381 51.9672 0.838648 51.9672 0.665603H51.9805C52.0337 0.798714 52.1001 0.971759 52.1799 1.17143C52.2596 1.37109 52.3659 1.61069 52.4722 1.86361C52.4855 1.90354 52.5121 1.91685 52.552 1.94347C52.5918 1.95678 52.6317 1.9701 52.6848 1.9701C52.7247 1.9701 52.7646 1.95678 52.8045 1.95678C52.831 1.94347 52.8709 1.93016 52.8842 1.91685C53.0038 1.61069 53.1101 1.35778 53.1898 1.17143C53.2696 0.971759 53.336 0.812025 53.3759 0.692225H53.3892C53.3892 0.772092 53.4025 0.878581 53.4025 1.01169C53.4025 1.13149 53.4158 1.2646 53.4291 1.41103C53.4423 1.55745 53.4423 1.70387 53.4556 1.87692C53.4689 2.03665 53.4689 2.2097 53.4822 2.36943C53.4822 2.43599 53.5088 2.47592 53.5487 2.50254C53.5885 2.52916 53.6284 2.52916 53.6815 2.52916C53.7214 2.52916 53.7613 2.52916 53.7879 2.51585C53.8144 2.50254 53.8543 2.48923 53.8809 2.47592C53.8942 2.36943 53.8942 2.27625 53.8809 2.15645Z" fill="#424750"/>
<path d="M9.89517 1.38436C8.84531 0.46589 7.23729 0 5.05783 0C4.41994 0 3.72889 0.0399334 3.01126 0.106489C2.29364 0.173045 1.66904 0.306156 1.15075 0.479201C0.871672 0.559068 0.645752 0.678869 0.486279 0.838602C0.326807 0.998336 0.24707 1.22463 0.24707 1.51747V14.5225C0.24707 14.975 0.366675 15.2945 0.579305 15.4942C0.805225 15.6938 1.17733 15.787 1.69561 15.787C1.9614 15.787 2.20061 15.7604 2.42653 15.7205C2.63916 15.6805 2.82521 15.6273 2.95811 15.5874V10.3561H5.19072C7.26387 10.3561 8.83202 9.87687 9.88188 8.93178C10.945 7.98669 11.4633 6.72213 11.4633 5.1381C11.4633 3.55408 10.945 2.31614 9.89517 1.38436ZM7.75558 7.41431C7.09111 7.90682 6.18743 8.15973 5.03125 8.15973H2.94482V2.39601C3.23718 2.34276 3.58271 2.30283 3.95481 2.2629C4.32691 2.23627 4.71231 2.20965 5.0977 2.20965C6.26717 2.20965 7.17084 2.44925 7.80874 2.91514C8.43334 3.39434 8.75228 4.12646 8.75228 5.1381C8.75228 6.14975 8.42005 6.90849 7.75558 7.41431Z" fill="#424750"/>
<path d="M13.4832 4.04663C13.2174 4.04663 12.9782 4.07325 12.7656 4.1265C12.553 4.17974 12.3802 4.21968 12.2473 4.2463V14.5624C12.2473 15.0017 12.3669 15.3079 12.5928 15.4942C12.832 15.6806 13.1909 15.7738 13.6693 15.7738C13.9351 15.7738 14.1743 15.7471 14.3869 15.7072C14.5995 15.6673 14.759 15.614 14.8786 15.5741V5.28457C14.8786 4.83199 14.7723 4.51252 14.5331 4.32616C14.3205 4.13981 13.9616 4.04663 13.4832 4.04663Z" fill="#424750"/>
<path d="M25.8027 4.57906C24.8857 3.84695 23.61 3.48755 21.9754 3.48755C21.0185 3.48755 20.168 3.60735 19.4105 3.83364C18.653 4.07324 18.0417 4.32615 17.5766 4.619C17.231 4.84529 16.9785 5.08489 16.8324 5.32449C16.6862 5.56409 16.6064 5.87024 16.6064 6.25627V14.5757C16.6064 15.015 16.726 15.3212 16.952 15.5075C17.1912 15.6939 17.55 15.787 18.0284 15.787C18.2809 15.787 18.5068 15.7604 18.7195 15.7205C18.9321 15.6806 19.0916 15.6273 19.2112 15.5874V6.32282C19.5434 6.13647 19.9421 5.97673 20.4072 5.817C20.8723 5.67058 21.3906 5.59071 21.9754 5.59071C22.7594 5.59071 23.384 5.77707 23.8492 6.16309C24.3143 6.54911 24.5402 7.14811 24.5402 7.9734V14.5491C24.5402 14.9884 24.6598 15.2945 24.8857 15.4809C25.1249 15.6672 25.4838 15.7604 25.9622 15.7604C26.2147 15.7604 26.4539 15.7338 26.6665 15.6939C26.8791 15.6539 27.0519 15.6007 27.1715 15.5608V7.89354C27.1848 6.416 26.733 5.31118 25.8027 4.57906Z" fill="#424750"/>
<path d="M50.6403 5.17807C50.1221 4.63231 49.4975 4.21967 48.7532 3.91351C48.009 3.62067 47.1984 3.47424 46.308 3.47424C45.4176 3.47424 44.607 3.62067 43.8628 3.91351C43.1185 4.20636 42.4939 4.619 41.9757 5.16476C41.4574 5.69721 41.0587 6.36276 40.7663 7.13481C40.474 7.90686 40.3411 8.77208 40.3411 9.73048C40.3411 10.6889 40.4872 11.5541 40.7663 12.3262C41.0454 13.0982 41.4441 13.7504 41.9624 14.2962C42.4674 14.8287 43.092 15.2546 43.8362 15.5475C44.5804 15.8403 45.391 15.9867 46.308 15.9867C47.2117 15.9867 48.0356 15.8403 48.7798 15.5475C49.524 15.2546 50.1486 14.842 50.6536 14.2962C51.1586 13.7638 51.5573 13.0982 51.8497 12.3262C52.142 11.5541 52.2749 10.6889 52.2749 9.73048C52.2749 8.77208 52.1288 7.90686 51.8497 7.14812C51.5573 6.37607 51.1586 5.72383 50.6403 5.17807ZM48.7267 12.7654C48.1552 13.4842 47.3446 13.8303 46.308 13.8303C45.2714 13.8303 44.4608 13.4709 43.8893 12.7654C43.3179 12.0466 43.0388 11.035 43.0388 9.73048C43.0388 8.41268 43.3312 7.40103 43.9159 6.68223C44.5006 5.96343 45.298 5.60403 46.308 5.60403C47.3313 5.60403 48.1286 5.96343 48.7134 6.69554C49.2981 7.42765 49.5772 8.4393 49.5772 9.73048C49.5772 11.035 49.2981 12.0466 48.7267 12.7654Z" fill="#424750"/>
<path d="M37.884 0.0266113C37.6315 0.0266113 37.3923 0.0532336 37.1796 0.106478C36.967 0.159723 36.7942 0.199656 36.6746 0.226279V4.05989C36.3424 3.88684 35.957 3.75373 35.5052 3.64724C35.0666 3.54075 34.5882 3.48751 34.0832 3.48751C33.2593 3.48751 32.4885 3.60731 31.7841 3.84691C31.0665 4.08651 30.4419 4.47253 29.9103 4.97836C29.3788 5.48418 28.9535 6.14974 28.6346 6.94841C28.3289 7.74708 28.1694 8.69217 28.1694 9.78368C28.1694 10.8353 28.3156 11.767 28.6213 12.5391C28.9269 13.3244 29.3522 13.9634 29.9103 14.4825C30.4685 15.0017 31.133 15.3744 31.917 15.614C32.7011 15.8536 33.5782 15.9734 34.5351 15.9734C35.3856 15.9734 36.1431 15.8802 36.8075 15.6672C37.472 15.4675 37.9903 15.2413 38.3757 14.9883C38.6946 14.7887 38.9338 14.5757 39.08 14.3494C39.2262 14.1231 39.3059 13.8303 39.3059 13.4842V1.23793C39.3059 0.798658 39.1863 0.492501 38.9604 0.306145C38.7345 0.119789 38.3624 0.0266113 37.884 0.0266113ZM36.7012 13.2845C36.4354 13.4309 36.1298 13.564 35.7843 13.6705C35.4387 13.777 35.0135 13.8303 34.5085 13.8303C33.4055 13.8303 32.5151 13.5108 31.8506 12.8719C31.1861 12.2329 30.8539 11.208 30.8539 9.79699C30.8539 9.03826 30.9469 8.39932 31.133 7.86688C31.319 7.33443 31.5715 6.89516 31.8905 6.56238C32.2094 6.21629 32.5815 5.97669 33.0068 5.81696C33.432 5.67054 33.8972 5.59067 34.4022 5.59067C34.8673 5.59067 35.3058 5.65723 35.6912 5.79034C36.0766 5.92345 36.4089 6.08318 36.7012 6.26954V13.2845Z" fill="#424750"/>
<path d="M14.4933 0.838553L13.9617 0.306107C13.8288 0.172996 13.6693 0.119751 13.4966 0.119751C13.3238 0.119751 13.1643 0.172996 13.0314 0.292796L12.4999 0.825242L11.9683 1.35769C11.8354 1.4908 11.7822 1.65053 11.7822 1.82358C11.7822 1.99662 11.8487 2.15636 11.9683 2.28947L12.4999 2.82191L13.0314 3.35436C13.1643 3.48747 13.3238 3.55403 13.4966 3.55403C13.6693 3.55403 13.8288 3.48747 13.9617 3.35436L14.4933 2.82191L15.0248 2.28947C15.1577 2.15636 15.2109 1.99662 15.2109 1.82358C15.2109 1.65053 15.1444 1.4908 15.0248 1.35769L14.4933 0.838553Z" fill="#424750"/>
</g>
<defs>
<clipPath id="clip0">
<rect width="53.6471" height="16" fill="white" transform="translate(0.24707)"/>
</clipPath>
</defs>
</svg>
